<svg xmlns="http://www.w3.org/2000/svg" xml:space="preserve" width="438.549" height="438.549"><path d="M409.132 114.573q-29.41-50.392-79.798-79.8C295.736 15.166 259.057 5.365 219.271 5.365c-39.781 0-76.472 9.804-110.063 29.408-33.596 19.605-60.192 46.204-79.8 79.8Q0 164.966 0 224.63c0 47.78 13.94 90.745 41.827 128.906q41.827 57.245 108.063 79.227c5.14.954 8.945.283 11.419-1.996 2.475-2.282 3.711-5.14 3.711-8.562q0-.855-.144-15.417a2550 2550 0 0 1-.144-25.406l-6.567 1.136c-4.187.767-9.469 1.092-15.846 1-6.374-.089-12.991-.757-19.842-1.999q-10.28-1.848-19.13-8.559c-5.898-4.473-10.085-10.328-12.56-17.556l-2.855-6.57c-1.903-4.374-4.899-9.233-8.992-14.559q-6.139-7.995-12.419-10.848l-1.999-1.431c-1.332-.951-2.568-2.098-3.711-3.429q-1.712-1.996-2.568-3.997-.86-2.002 1.427-3.289c1.525-.859 4.281-1.276 8.28-1.276l5.708.853c3.807.763 8.516 3.042 14.133 6.851q8.42 5.71 13.846 14.842c4.38 7.806 9.657 13.754 15.846 17.847q9.277 6.138 18.699 6.136 9.42-.001 16.274-1.423 6.848-1.43 12.847-4.285 2.57-19.135 13.988-29.41c-10.848-1.14-20.601-2.857-29.264-5.14-8.658-2.286-17.605-5.996-26.835-11.14-9.235-5.137-16.896-11.516-22.985-19.126-6.09-7.614-11.088-17.61-14.987-29.979q-5.852-18.56-5.852-42.826c0-23.035 7.52-42.637 22.557-58.817q-10.566-25.977 1.997-58.24c5.52-1.715 13.706-.428 24.554 3.853 10.85 4.283 18.794 7.952 23.84 10.994s9.089 5.618 12.135 7.708q26.556-7.42 54.818-7.421c28.262-.001 37.117 2.474 54.823 7.421l10.849-6.849c7.419-4.57 16.18-8.758 26.262-12.565 10.088-3.805 17.802-4.853 23.134-3.138 8.562 21.509 9.325 40.922 2.279 58.24 15.036 16.18 22.559 35.787 22.559 58.817 0 16.178-1.958 30.497-5.853 42.966-3.9 12.471-8.941 22.457-15.125 29.979q-9.286 11.282-23.131 18.986c-9.232 5.14-18.182 8.85-26.84 11.136-8.662 2.286-18.415 4.004-29.263 5.146q14.841 12.845 14.842 40.539v60.237c0 3.422 1.19 6.279 3.572 8.562 2.379 2.279 6.136 2.95 11.276 1.995q66.244-21.98 108.068-79.226c27.88-38.161 41.825-81.126 41.825-128.906-.01-39.771-9.818-76.454-29.414-110.049"/></svg>