<svg xmlns="http://www.w3.org/2000/svg" xml:space="preserve" viewBox="0 0 500 500"><path d="M212.4 87.4c12.7-13.6 25.7-27 38.5-40.5 12.8 13.5 25.7 27 38.5 40.4-12.8 5.3-25.7 10.5-38.6 15.7zM178.6 93.5c14.7 6.5 29.3 13.1 44 19.7L162 141.1c5.6-15.8 11.1-31.7 16.6-47.6M276.5 113.2c14.6-6.5 29.2-13.1 43.8-19.7 5.6 15.8 11.1 31.7 16.6 47.7l-45.6-21c-4.9-2.4-9.9-4.6-14.8-7M248.5 120.5c.4-.2.8-.2 1.2.1 29.9 13.6 59.7 27.2 89.6 40.7-4.1 2.2-8.5 3.9-12.8 5.9-25.8 11.7-51.6 23.5-77.5 35.2-4.5-1.9-8.9-4.1-13.4-6-25.3-11.4-50.5-23-75.8-34.4l-1.2-.6c30.1-13.6 60-27.3 89.9-40.9M122.5 164c27.8 12.2 55.5 24.4 83.3 36.6 6 2.7 12.2 5.3 18.1 8-33.9 14.9-67.6 29.7-101.4 44.6zM278.5 207.4c33-14.5 65.9-29 98.9-43.4v89.2c-33.8-14.9-67.6-29.7-101.3-44.6q1.05-.6 2.4-1.2M146.5 262.9c34.3-15.6 68.6-31.3 103-46.8 34.3 15.6 68.5 31.2 102.8 46.8-29.6 13.6-59.3 27-88.9 40.4-4.7 2.1-9.3 4.3-14 6.3-34.3-15.6-68.7-31.1-102.9-46.7M100.6 263.9c1.8.4 3.5 1.2 5.1 1.9 35.2 14.8 70.3 29.6 105.5 44.3 4.4 1.9 8.9 3.6 13.1 5.6-28.2 12.4-56.3 25.1-84.5 37.5-12.5-28.7-25.2-57.4-37.8-86.2-.4-1.1-.9-2-1.5-3v-.2h.1zM395.4 265.4c1.3-.6 2.6-1.1 4-1.5v.2c-.9 1.2-1.3 2.8-1.9 4.1-12.4 28.3-24.9 56.8-37.4 85.1-28.2-12.5-56.3-25.1-84.4-37.6 8.9-3.9 17.9-7.6 26.7-11.3 31-12.9 62-26 93-39M248.3 324.3c.5-.2 1-.3 1.5 0 29.9 13.6 59.8 27.2 89.6 40.8-26.9 12.3-53.8 24.4-80.7 36.7v50.3h-19.5v-50.4c-26.8-12.2-53.7-24.4-80.5-36.6 29.8-13.6 59.7-27.2 89.6-40.8"/></svg>