<?xml version="1.0" encoding="utf-8"?>
<!-- Generator: Adobe Illustrator 23.0.2, SVG Export Plug-In . SVG Version: 6.00 Build 0)  -->
<svg version="1.1" id="Layer_1" xmlns="http://www.w3.org/2000/svg" xmlns:xlink="http://www.w3.org/1999/xlink" x="0px" y="0px"
	 viewBox="0 0 500 500" style="enable-background:new 0 0 500 500;" xml:space="preserve">
<g>
	<path d="M212.4,87.4c12.7-13.6,25.7-27,38.5-40.5c12.8,13.5,25.7,27,38.5,40.4c-12.8,5.3-25.7,10.5-38.6,15.7
		C238,97.8,225.2,92.6,212.4,87.4z"/>
	<path d="M178.6,93.5c14.7,6.5,29.3,13.1,44,19.7c-20.2,9.3-40.4,18.6-60.6,27.9C167.6,125.3,173.1,109.4,178.6,93.5z"/>
	<path d="M276.5,113.2c14.6-6.5,29.2-13.1,43.8-19.7c5.6,15.8,11.1,31.7,16.6,47.7c-15.2-7-30.4-14-45.6-21
		C286.4,117.8,281.4,115.6,276.5,113.2z"/>
	<path d="M248.5,120.5c0.4-0.2,0.8-0.2,1.2,0.1c29.9,13.6,59.7,27.2,89.6,40.7c-4.1,2.2-8.5,3.9-12.8,5.9
		c-25.8,11.7-51.6,23.5-77.5,35.2c-4.5-1.9-8.9-4.1-13.4-6c-25.3-11.4-50.5-23-75.8-34.4c-0.4-0.2-0.8-0.4-1.2-0.6
		C188.7,147.8,218.6,134.1,248.5,120.5z"/>
	<path d="M122.5,164c27.8,12.2,55.5,24.4,83.3,36.6c6,2.7,12.2,5.3,18.1,8c-33.9,14.9-67.6,29.7-101.4,44.6
		C122.5,223.5,122.5,193.7,122.5,164z"/>
	<path d="M278.5,207.4c33-14.5,65.9-29,98.9-43.4c0,29.7,0,59.5,0,89.2c-33.8-14.9-67.6-29.7-101.3-44.6
		C276.8,208.2,277.6,207.8,278.5,207.4z"/>
	<path d="M146.5,262.9c34.3-15.6,68.6-31.3,103-46.8c34.3,15.6,68.5,31.2,102.8,46.8c-29.6,13.6-59.3,27-88.9,40.4
		c-4.7,2.1-9.3,4.3-14,6.3C215.1,294,180.7,278.5,146.5,262.9z"/>
	<path d="M100.6,263.9c1.8,0.4,3.5,1.2,5.1,1.9c35.2,14.8,70.3,29.6,105.5,44.3c4.4,1.9,8.9,3.6,13.1,5.6
		c-28.2,12.4-56.3,25.1-84.5,37.5c-12.5-28.7-25.2-57.4-37.8-86.2c-0.4-1.1-0.9-2-1.5-3v-0.2H100.6z"/>
	<path d="M395.4,265.4c1.3-0.6,2.6-1.1,4-1.5v0.2c-0.9,1.2-1.3,2.8-1.9,4.1c-12.4,28.3-24.9,56.8-37.4,85.1
		c-28.2-12.5-56.3-25.1-84.4-37.6c8.9-3.9,17.9-7.6,26.7-11.3C333.4,291.5,364.4,278.4,395.4,265.4z"/>
	<path d="M248.3,324.3c0.5-0.2,1-0.3,1.5,0c29.9,13.6,59.8,27.2,89.6,40.8c-26.9,12.3-53.8,24.4-80.7,36.7c0,16.7,0,33.5,0,50.3
		h-19.5c0-16.8,0-33.6,0-50.4c-26.8-12.2-53.7-24.4-80.5-36.6C188.5,351.5,218.4,337.9,248.3,324.3z"/>
</g>
</svg>
