<?xml version="1.0" encoding="utf-8"?>
<!-- Generator: Adobe Illustrator 23.0.2, SVG Export Plug-In . SVG Version: 6.00 Build 0)  -->
<svg version="1.1" id="Layer_1" xmlns="http://www.w3.org/2000/svg" xmlns:xlink="http://www.w3.org/1999/xlink" x="0px" y="0px"
	 viewBox="0 0 500 500" style="enable-background:new 0 0 500 500;" xml:space="preserve">
<style type="text/css">
	.st0{fill:none;stroke:#000000;stroke-linecap:round;stroke-linejoin:round;}
</style>
<g transform="matrix( 1, 0, 0, 1, 0,0) ">
	<g>
		<g id="b">
			<path d="M124.7,429.6v0.5h48.5v-0.5H124.7 M68.4,167.4V162h-1.7v5.4C67.2,167.4,67.8,167.4,68.4,167.4 M415,171.3
				c4.4-4.3,9.8-6.4,16-6.4V67.5H68.4V162v5.4c5.5,0.4,10.3,2.5,14.3,6.4c4.4,4.4,6.6,9.8,6.6,16.2c0,6.2-2.2,11.6-6.6,16
				c-3.6,3.6-7.8,5.7-12.5,6.4h-1.7v217.2h56.3h48.5H431V209.9h-3.4c-4.8-0.7-8.9-2.8-12.5-6.4c-4.4-4.4-6.6-9.8-6.6-16
				C408.4,181.1,410.6,175.7,415,171.3 M418.9,73.4c1.3,0,2.4,0.4,3.2,1.2c1,1,1.5,2.1,1.5,3.4c0,1.3-0.5,2.4-1.5,3.2
				c-0.8,1-1.9,1.5-3.2,1.5c-0.8,0-1.6-0.2-2.2-0.5c-0.5-0.3-0.9-0.7-1.2-1c-0.8-0.8-1.2-1.8-1.2-3v-0.2c0-1.3,0.4-2.5,1.2-3.4
				c0.3-0.3,0.7-0.6,1.2-0.7C417.4,73.6,418.1,73.4,418.9,73.4 M418.7,114.7h0.2c1.3,0,2.5,0.4,3.4,1.2c0.8,1,1.2,2.1,1.2,3.4
				s-0.4,2.4-1.2,3.2c-1,1-2.1,1.5-3.4,1.5c-1.3,0-2.4-0.5-3.2-1.5c-1-0.8-1.5-1.9-1.5-3.2s0.5-2.5,1.5-3.4
				C416.6,115.1,417.6,114.7,418.7,114.7 M418.7,127.8h0.2c1.3,0,2.5,0.4,3.4,1.2c0.8,1,1.2,2.1,1.2,3.4s-0.4,2.4-1.2,3.2
				c-1,1-2.1,1.5-3.4,1.5c-1.3,0-2.4-0.5-3.2-1.5c-1-0.8-1.5-1.9-1.5-3.2s0.5-2.5,1.5-3.4C416.6,128.2,417.6,127.8,418.7,127.8
				 M409.4,121.4h0.2c1.3,0,2.5,0.4,3.4,1.2c0.8,1,1.2,2.1,1.2,3.4s-0.4,2.4-1.2,3.2c-1,1-2.1,1.5-3.4,1.5c-1.3,0-2.4-0.5-3.2-1.5
				c-1-0.8-1.5-1.9-1.5-3.2s0.5-2.5,1.5-3.4C407.2,121.8,408.2,121.4,409.4,121.4 M409.6,134.4c1.3,0,2.5,0.4,3.4,1.2
				c0.8,1,1.2,2.1,1.2,3.4s-0.4,2.4-1.2,3.2c-1,1-2.1,1.5-3.4,1.5s-2.4-0.5-3.2-1.5c-1-0.8-1.5-1.9-1.5-3.2s0.5-2.5,1.5-3.4
				c0.8-0.8,1.8-1.2,3-1.2H409.6 M409.4,147.4h0.2c1.3,0,2.5,0.4,3.4,1.2c0.8,1,1.2,2.1,1.2,3.4c0,1.3-0.4,2.4-1.2,3.2
				c-1,1-2.1,1.5-3.4,1.5s-2.4-0.5-3.2-1.5c-1-0.8-1.5-1.9-1.5-3.2c0-1.3,0.5-2.5,1.5-3.4C407.2,147.9,408.2,147.4,409.4,147.4
				 M418.7,140.8h0.2c1.3,0,2.5,0.4,3.4,1.2c0.8,1,1.2,2.1,1.2,3.4c0,1.3-0.4,2.4-1.2,3.2c-1,1-2.1,1.5-3.4,1.5
				c-1.3,0-2.4-0.5-3.2-1.5c-1-0.8-1.5-1.9-1.5-3.2c0-1.3,0.5-2.5,1.5-3.4C416.6,141.2,417.6,140.8,418.7,140.8 M409.8,223.2
				c1.1,0,2.1,0.4,3,1.2c1,1,1.5,2.1,1.5,3.4c0,1.3-0.5,2.4-1.5,3.2c-0.8,1-1.9,1.5-3.2,1.5s-2.5-0.5-3.4-1.5
				c-0.8-0.8-1.2-1.9-1.2-3.2c0-1.3,0.4-2.5,1.2-3.4c1-0.8,2.1-1.2,3.4-1.2H409.8 M404.9,240.9c0-1.3,0.4-2.5,1.2-3.4
				c1-0.8,2.1-1.2,3.4-1.2h0.2c1.1,0,2.1,0.4,3,1.2c1,1,1.5,2.1,1.5,3.4s-0.5,2.4-1.5,3.2c-0.8,1-1.9,1.5-3.2,1.5
				c-1.3,0-2.5-0.5-3.4-1.5C405.3,243.3,404.9,242.2,404.9,240.9 M422.1,231.1c1,1,1.5,2.1,1.5,3.4c0,1.3-0.5,2.4-1.5,3.2
				c-0.8,1-1.9,1.5-3.2,1.5c-1.3,0-2.5-0.5-3.4-1.5c-0.8-0.8-1.2-1.9-1.2-3.2c0-1.3,0.4-2.5,1.2-3.4c1-0.8,2.1-1.2,3.4-1.2h0.2
				C420.3,229.9,421.3,230.3,422.1,231.1 M422.1,244.1c1,1,1.5,2.1,1.5,3.4c0,1.3-0.5,2.4-1.5,3.2c-0.8,1-1.9,1.5-3.2,1.5
				c-1.3,0-2.5-0.5-3.4-1.5c-0.8-0.8-1.2-1.9-1.2-3.2c0-1.3,0.4-2.5,1.2-3.4c1-0.8,2.1-1.2,3.4-1.2h0.2
				C420.3,242.9,421.3,243.3,422.1,244.1 M418.9,255.9h0.2c1.1,0,2.1,0.4,3,1.2c1,1,1.5,2.1,1.5,3.4s-0.5,2.4-1.5,3.2
				c-0.8,1-1.9,1.5-3.2,1.5c-1.3,0-2.5-0.5-3.4-1.5c-0.8-0.8-1.2-1.9-1.2-3.2s0.4-2.5,1.2-3.4C416.5,256.3,417.6,255.9,418.9,255.9
				 M409.6,249.3h0.2c1.1,0,2.1,0.4,3,1.2c1,1,1.5,2.1,1.5,3.4c0,1.3-0.5,2.4-1.5,3.2c-0.8,1-1.9,1.5-3.2,1.5s-2.5-0.5-3.4-1.5
				c-0.8-0.8-1.2-1.9-1.2-3.2c0-1.3,0.4-2.5,1.2-3.4C407.1,249.7,408.3,249.3,409.6,249.3 M409.6,262.6h0.2c1.1,0,2.1,0.4,3,1.2
				c1,1,1.5,2.1,1.5,3.4s-0.5,2.4-1.5,3.2c-0.8,1-1.9,1.5-3.2,1.5s-2.5-0.5-3.4-1.5c-0.8-0.8-1.2-1.9-1.2-3.2s0.4-2.5,1.2-3.4
				C407.1,263,408.3,262.6,409.6,262.6 M418.9,269.2h0.2c1.1,0,2.1,0.4,3,1.2c1,1,1.5,2.1,1.5,3.4s-0.5,2.4-1.5,3.2
				c-0.8,1-1.9,1.5-3.2,1.5c-1.3,0-2.5-0.5-3.4-1.5c-0.8-0.8-1.2-1.9-1.2-3.2s0.4-2.5,1.2-3.4C416.5,269.6,417.6,269.2,418.9,269.2
				 M418.9,282.3h0.2c1.1,0,2.1,0.4,3,1.2c1,1,1.5,2.1,1.5,3.4c0,1.3-0.5,2.4-1.5,3.2c-0.8,1-1.9,1.5-3.2,1.5
				c-1.3,0-2.5-0.5-3.4-1.5c-0.8-0.8-1.2-1.9-1.2-3.2c0-1.3,0.4-2.5,1.2-3.4C416.5,282.7,417.6,282.3,418.9,282.3 M409.8,275.6
				c1.1,0,2.1,0.4,3,1.2c1,1,1.5,2.1,1.5,3.4s-0.5,2.4-1.5,3.2c-0.8,1-1.9,1.5-3.2,1.5c-1.3,0-2.5-0.5-3.4-1.5
				c-0.8-0.8-1.2-1.9-1.2-3.2s0.4-2.5,1.2-3.4c1-0.8,2.1-1.2,3.4-1.2H409.8 M409.8,288.7c1.1,0,2.1,0.4,3,1.2c1,1,1.5,2.1,1.5,3.4
				c0,1.3-0.5,2.4-1.5,3.2c-0.8,1-1.9,1.5-3.2,1.5s-2.5-0.5-3.4-1.5c-0.8-0.8-1.2-1.9-1.2-3.2c0-1.3,0.4-2.5,1.2-3.4
				c1-0.8,2.1-1.2,3.4-1.2H409.8 M409.6,301.4c1.3,0,2.5,0.5,3.4,1.5c0.8,0.8,1.2,1.9,1.2,3.2s-0.4,2.5-1.2,3.4
				c-1,0.8-2.1,1.2-3.4,1.2h-0.2c-1.1,0-2.1-0.4-3-1.2c-1-1-1.5-2.1-1.5-3.4s0.5-2.4,1.5-3.2C407.2,301.9,408.3,301.4,409.6,301.4
				 M418.9,295.3h0.2c1.1,0,2.1,0.4,3,1.2c1,1,1.5,2.1,1.5,3.4s-0.5,2.4-1.5,3.2c-0.8,1-1.9,1.5-3.2,1.5c-1.3,0-2.5-0.5-3.4-1.5
				c-0.8-0.8-1.2-1.9-1.2-3.2s0.4-2.5,1.2-3.4C416.5,295.7,417.6,295.3,418.9,295.3 M415.7,309.6c0.8-1,1.9-1.5,3.2-1.5
				c1.3,0,2.5,0.5,3.4,1.5c0.8,0.8,1.2,1.9,1.2,3.2s-0.4,2.5-1.2,3.4c-1,0.8-2.1,1.2-3.4,1.2h-0.2c-1.1,0-2.1-0.4-3-1.2
				c-1-1-1.5-2.1-1.5-3.4S414.8,310.4,415.7,309.6 M409.6,314.5c1.3,0,2.5,0.5,3.4,1.5c0.8,0.8,1.2,1.9,1.2,3.2
				c0,1.3-0.4,2.5-1.2,3.4c-1,0.8-2.1,1.2-3.4,1.2h-0.2c-1.1,0-2.1-0.4-3-1.2c-1-1-1.5-2.1-1.5-3.4c0-1.3,0.5-2.4,1.5-3.2
				C407.2,315,408.3,314.5,409.6,314.5 M404.9,332.2c0-1.3,0.5-2.4,1.5-3.2c0.8-1,1.9-1.5,3.2-1.5s2.5,0.5,3.4,1.5
				c0.8,0.8,1.2,1.9,1.2,3.2s-0.4,2.5-1.2,3.4c-1,0.8-2.1,1.2-3.4,1.2h-0.2c-1.1,0-2.1-0.4-3-1.2
				C405.4,334.7,404.9,333.5,404.9,332.2 M422.4,322.6c0.8,0.8,1.2,1.9,1.2,3.2c0,1.3-0.4,2.5-1.2,3.4c-1,0.8-2.1,1.2-3.4,1.2h-0.2
				c-1.1,0-2.1-0.4-3-1.2c-1-1-1.5-2.1-1.5-3.4c0-1.3,0.5-2.4,1.5-3.2c0.8-1,1.9-1.5,3.2-1.5C420.3,321.1,421.4,321.6,422.4,322.6
				 M422.4,335.6c0.8,0.8,1.2,1.9,1.2,3.2c0,1.3-0.4,2.5-1.2,3.4c-1,0.8-2.1,1.2-3.4,1.2h-0.2c-1.1,0-2.1-0.4-3-1.2
				c-1-1-1.5-2.1-1.5-3.4c0-1.3,0.5-2.4,1.5-3.2c0.8-1,1.9-1.5,3.2-1.5C420.3,334.2,421.4,334.7,422.4,335.6 M415.7,348.9
				c0.8-1,1.9-1.5,3.2-1.5c1.3,0,2.5,0.5,3.4,1.5c0.8,0.8,1.2,1.9,1.2,3.2c0,1.3-0.4,2.5-1.2,3.4c-1,0.8-2.1,1.2-3.4,1.2h-0.2
				c-1.1,0-2.1-0.4-3-1.2c-1-1-1.5-2.1-1.5-3.4C414.3,350.8,414.8,349.7,415.7,348.9 M406.4,348.9c-1-1-1.5-2.1-1.5-3.4
				c0-1.3,0.5-2.4,1.5-3.2c0.8-1,1.9-1.5,3.2-1.5s2.5,0.5,3.4,1.5c0.8,0.8,1.2,1.9,1.2,3.2c0,1.3-0.4,2.5-1.2,3.4
				c-1,0.8-2.1,1.2-3.4,1.2h-0.2C408.2,350.2,407.2,349.7,406.4,348.9 M409.6,353.8c1.3,0,2.5,0.5,3.4,1.5c0.8,0.8,1.2,1.9,1.2,3.2
				c0,1.3-0.4,2.5-1.2,3.4c-1,0.8-2.1,1.2-3.4,1.2h-0.2c-1.1,0-2.1-0.4-3-1.2c-1-1-1.5-2.1-1.5-3.4c0-1.3,0.5-2.4,1.5-3.2
				C407.2,354.3,408.3,353.8,409.6,353.8 M415.7,362c0.8-1,1.9-1.5,3.2-1.5c1.3,0,2.5,0.5,3.4,1.5c0.8,0.8,1.2,1.9,1.2,3.2
				c0,1.3-0.4,2.5-1.2,3.4c-1,0.8-2.1,1.2-3.4,1.2h-0.2c-1.1,0-2.1-0.4-3-1.2c-1-1-1.5-2.1-1.5-3.4
				C414.3,363.9,414.8,362.8,415.7,362 M415.7,375c0.8-1,1.9-1.5,3.2-1.5c1.3,0,2.5,0.5,3.4,1.5c0.8,0.8,1.2,1.9,1.2,3.2
				c0,1.3-0.4,2.5-1.2,3.4c-1,0.8-2.1,1.2-3.4,1.2h-0.2c-1.1,0-2.1-0.4-3-1.2c-1-1-1.5-2.1-1.5-3.4
				C414.3,376.9,414.8,375.8,415.7,375 M409.6,366.9c1.3,0,2.5,0.5,3.4,1.5c0.8,0.8,1.2,1.9,1.2,3.2s-0.4,2.5-1.2,3.4
				c-1,0.8-2.1,1.2-3.4,1.2h-0.2c-1.1,0-2.1-0.4-3-1.2c-1-1-1.5-2.1-1.5-3.4s0.5-2.4,1.5-3.2C407.2,367.4,408.3,366.9,409.6,366.9
				 M414.3,418.8v-0.2c0-1.3,0.4-2.5,1.2-3.4c1-0.8,2.1-1.2,3.4-1.2c1.3,0,2.4,0.4,3.2,1.2c1,1,1.5,2.1,1.5,3.4s-0.5,2.4-1.5,3.2
				c-0.8,1-1.9,1.5-3.2,1.5c-1.3,0-2.5-0.5-3.4-1.5C414.7,420.9,414.3,419.9,414.3,418.8 M348.6,89.9c0-1.3,0.5-2.5,1.5-3.4
				c0.8-0.8,1.8-1.2,3-1.2h0.2c1.3,0,2.5,0.4,3.4,1.2c0.8,1,1.2,2.1,1.2,3.4c0,1.3-0.4,2.4-1.2,3.2c-1,1-2.1,1.5-3.4,1.5
				c-1.3,0-2.4-0.5-3.2-1.5C349.1,92.3,348.6,91.2,348.6,89.9 M310,76.6c0.8,1,1.2,2.1,1.2,3.4s-0.4,2.4-1.2,3.2
				c-1,1-2.1,1.5-3.4,1.5s-2.4-0.5-3.2-1.5c-1-0.8-1.5-1.9-1.5-3.2c0-1.3,0.5-2.5,1.5-3.4c0.8-0.8,1.8-1.2,3-1.2h0.2
				C307.8,75.4,309,75.8,310,76.6 M313.4,80c0-1.3,0.5-2.5,1.5-3.4c0.8-0.8,1.8-1.2,3-1.2h0.2c1.3,0,2.5,0.4,3.4,1.2
				c0.8,1,1.2,2.1,1.2,3.4s-0.4,2.4-1.2,3.2c-1,1-2.1,1.5-3.4,1.5c-1.3,0-2.4-0.5-3.2-1.5C313.9,82.4,313.4,81.3,313.4,80
				 M304.3,86.4c0.8,1,1.2,2.1,1.2,3.4c0,1.3-0.4,2.4-1.2,3.2c-1,1-2.1,1.5-3.4,1.5c-1.3,0-2.4-0.5-3.2-1.5c-1-0.8-1.5-1.9-1.5-3.2
				c0-1.3,0.5-2.5,1.5-3.4c0.8-0.8,1.8-1.2,3-1.2h0.2C302.2,85.2,303.3,85.6,304.3,86.4 M312.2,85.2h0.2c1.3,0,2.5,0.4,3.4,1.2
				c0.8,1,1.2,2.1,1.2,3.4c0,1.3-0.4,2.4-1.2,3.2c-1,1-2.1,1.5-3.4,1.5c-1.3,0-2.4-0.5-3.2-1.5c-1-0.8-1.5-1.9-1.5-3.2
				c0-1.3,0.5-2.5,1.5-3.4C310,85.6,311,85.2,312.2,85.2 M362.4,76.6c0.8,1,1.2,2.1,1.2,3.4s-0.4,2.4-1.2,3.2c-1,1-2.1,1.5-3.4,1.5
				c-1.3,0-2.4-0.5-3.2-1.5c-1-0.8-1.5-1.9-1.5-3.2s0.5-2.5,1.5-3.4c0.8-0.8,1.8-1.2,3-1.2h0.2C360.2,75.4,361.4,75.8,362.4,76.6
				 M361.6,86.4c0.8-0.8,1.8-1.2,3-1.2h0.2c1.3,0,2.5,0.4,3.4,1.2c0.8,1,1.2,2.1,1.2,3.4c0,1.3-0.4,2.4-1.2,3.2
				c-1,1-2.1,1.5-3.4,1.5c-1.3,0-2.4-0.5-3.2-1.5c-1-0.8-1.5-1.9-1.5-3.2C360.1,88.6,360.6,87.4,361.6,86.4 M373.9,76.6
				c0.8,1,1.2,2.1,1.2,3.4s-0.4,2.4-1.2,3.2c-1,1-2.1,1.5-3.4,1.5c-1.3,0-2.4-0.5-3.2-1.5c-1-0.8-1.5-1.9-1.5-3.2s0.5-2.5,1.5-3.4
				c0.8-0.8,1.8-1.2,3-1.2h0.2C371.8,75.4,372.9,75.8,373.9,76.6 M249.4,75.4h0.2c1.3,0,2.5,0.4,3.4,1.2c0.8,1,1.2,2.1,1.2,3.4
				s-0.4,2.4-1.2,3.2c-1,1-2.1,1.5-3.4,1.5c-1.3,0-2.4-0.5-3.2-1.5c-1-0.8-1.5-1.9-1.5-3.2s0.5-2.5,1.5-3.4
				C247.3,75.8,248.3,75.4,249.4,75.4 M240.8,86.4c0.8-0.8,1.8-1.2,3-1.2h0.2c1.3,0,2.5,0.4,3.4,1.2c0.8,1,1.2,2.1,1.2,3.4
				c0,1.3-0.4,2.4-1.2,3.2c-1,1-2.1,1.5-3.4,1.5c-1.3,0-2.4-0.5-3.2-1.5c-1-0.8-1.5-1.9-1.5-3.2C239.4,88.6,239.8,87.4,240.8,86.4
				 M250.9,89.9c0-1.3,0.5-2.5,1.5-3.4c0.8-0.8,1.8-1.2,3-1.2h0.2c1.3,0,2.5,0.4,3.4,1.2c0.8,1,1.2,2.1,1.2,3.4
				c0,1.3-0.4,2.4-1.2,3.2c-1,1-2.1,1.5-3.4,1.5c-1.3,0-2.4-0.5-3.2-1.5C251.4,92.3,250.9,91.2,250.9,89.9 M261.2,75.4
				c1.3,0,2.5,0.4,3.4,1.2c0.8,1,1.2,2.1,1.2,3.4s-0.4,2.4-1.2,3.2c-1,1-2.1,1.5-3.4,1.5c-1.3,0-2.4-0.5-3.2-1.5
				c-1-0.8-1.5-1.9-1.5-3.2c0-1.3,0.5-2.5,1.5-3.4c0.8-0.8,1.8-1.2,3-1.2H261.2 M364.8,114.7c13.1,0,19.7,6.6,19.7,19.7v231.7
				c0,7.4-2.1,12.8-6.4,16c-3.2,2.5-7.6,3.7-13.3,3.7H133.1c-13.1,0-19.7-6.6-19.7-19.7V134.4c0-13.1,6.6-19.7,19.7-19.7H364.8
				 M143.7,73.4c1.3,0,2.5,0.4,3.4,1.2c0.8,1,1.2,2.1,1.2,3.4c0,1.3-0.4,2.4-1.2,3.2c-1,1-2.1,1.5-3.4,1.5s-2.4-0.5-3.2-1.5
				c-1-0.8-1.5-1.9-1.5-3.2c0-1.3,0.5-2.5,1.5-3.4c0.8-0.8,1.8-1.2,3-1.2H143.7 M132.1,73.4c1.3,0,2.5,0.4,3.4,1.2
				c0.8,1,1.2,2.1,1.2,3.4c0,1.3-0.4,2.4-1.2,3.2c-1,1-2.1,1.5-3.4,1.5s-2.4-0.5-3.2-1.5c-1-0.8-1.5-1.9-1.5-3.2
				c0-1.3,0.5-2.5,1.5-3.4c0.8-0.8,1.8-1.2,3-1.2H132.1 M129.9,84.5c0.8,1,1.2,2.1,1.2,3.4c0,1.3-0.4,2.4-1.2,3.2
				c-1,1-2.1,1.5-3.4,1.5c-1.3,0-2.4-0.5-3.2-1.5c-1-0.8-1.5-1.9-1.5-3.2c0-1.3,0.5-2.5,1.5-3.4c0.8-0.8,1.8-1.2,3-1.2h0.2
				C127.7,83.2,128.9,83.6,129.9,84.5 M137.7,83.2h0.2c1.3,0,2.5,0.4,3.4,1.2c0.8,1,1.2,2.1,1.2,3.4c0,1.3-0.4,2.4-1.2,3.2
				c-1,1-2.1,1.5-3.4,1.5c-1.3,0-2.4-0.5-3.2-1.5c-1-0.8-1.5-1.9-1.5-3.2c0-1.3,0.5-2.5,1.5-3.4C135.6,83.6,136.6,83.2,137.7,83.2
				 M86.1,74.4c2.5,0,4.5,0.8,6.2,2.5c2,2,3,4.2,3,6.6c0,2.5-1,4.5-3,6.2c-1.6,2-3.7,3-6.2,3c-2.5,0-4.7-1-6.6-3
				C77.8,88,77,85.9,77,83.5c0-2.5,0.8-4.7,2.5-6.6C81.4,75.2,83.6,74.4,86.1,74.4 M75.8,358.3c0-1.1,0.4-2.2,1.2-3.2
				c1-0.8,2.1-1.2,3.2-1.2c1.1,0,2.1,0.4,3,1.2c1,1,1.5,2.1,1.5,3.2c0,1.1-0.5,2.1-1.5,3c-0.8,1-1.8,1.5-3,1.5
				c-1.1,0-2.2-0.5-3.2-1.5C76.2,360.4,75.8,359.4,75.8,358.3 M85.8,360.5c1-0.8,2.1-1.2,3.2-1.2s2.1,0.4,3,1.2c1,1,1.5,2.1,1.5,3.2
				c0,1.1-0.5,2.1-1.5,3c-0.8,1-1.8,1.5-3,1.5s-2.2-0.5-3.2-1.5c-0.8-0.8-1.2-1.8-1.2-3C84.6,362.5,85,361.5,85.8,360.5 M92,372.5
				c1,1,1.5,2.1,1.5,3.2c0,1.1-0.5,2.1-1.5,3c-0.8,1-1.8,1.5-3,1.5s-2.2-0.5-3.2-1.5c-0.8-0.8-1.2-1.8-1.2-3c0-1.1,0.4-2.2,1.2-3.2
				c1-0.8,2.1-1.2,3.2-1.2S91.2,371.7,92,372.5 M80.2,365.2c1.1,0,2.1,0.4,3,1.2c1,1,1.5,2.1,1.5,3.2s-0.5,2.1-1.5,3
				c-0.8,1-1.8,1.5-3,1.5c-1.1,0-2.2-0.5-3.2-1.5c-0.8-0.8-1.2-1.8-1.2-3s0.4-2.2,1.2-3.2C78,365.6,79,365.2,80.2,365.2 M80.2,377
				c1.1,0,2.1,0.4,3,1.2c1,1,1.5,2.1,1.5,3.2c0,1.1-0.5,2.1-1.5,3c-0.8,1-1.8,1.5-3,1.5c-1.1,0-2.2-0.5-3.2-1.5
				c-0.8-0.8-1.2-1.8-1.2-3c0-1.1,0.4-2.2,1.2-3.2C78,377.4,79,377,80.2,377 M85.8,384.1c1-0.8,2.1-1.2,3.2-1.2s2.1,0.4,3,1.2
				c1,1,1.5,2.1,1.5,3.2c0,1.1-0.5,2.1-1.5,3c-0.8,1-1.8,1.5-3,1.5s-2.2-0.5-3.2-1.5c-0.8-0.8-1.2-1.8-1.2-3
				C84.6,386.2,85,385.1,85.8,384.1 M75.8,424.7v-23.9l23.9,23.9H75.8 M156,405c1.1,0,2.2,0.5,3.2,1.5c0.8,0.8,1.2,1.8,1.2,3
				c0,0.9-0.2,1.7-0.7,2.5c-0.1,0.3-0.3,0.5-0.5,0.7c-1,0.8-2.1,1.2-3.2,1.2s-2.1-0.4-3-1.2c-0.9-0.9-1.4-1.9-1.5-3v-0.2
				c0-1.1,0.5-2.1,1.5-3C153.8,405.5,154.8,405,156,405 M161.4,413.9c1.1,0,2.2,0.5,3.2,1.5c0.8,0.8,1.2,1.8,1.2,3
				c0,1.1-0.4,2.2-1.2,3.2c-1,0.8-2.1,1.2-3.2,1.2c-0.6,0-1.2-0.2-1.7-0.5c-0.4-0.1-0.9-0.4-1.2-0.7c-1-1-1.5-2.1-1.5-3.2
				c0-1.1,0.5-2.1,1.5-3c0.4-0.5,0.8-0.8,1.2-1C160.2,414,160.7,413.9,161.4,413.9 M154.5,418.3c0,1.1-0.4,2.2-1.2,3.2
				c-1,0.8-2.1,1.2-3.2,1.2c-1.1,0-2.1-0.4-3-1.2c-1-1-1.5-2.1-1.5-3.2c0-1.1,0.5-2.1,1.5-3c0.8-1,1.8-1.5,3-1.5
				c1.1,0,2.2,0.5,3.2,1.5C154.1,416.2,154.5,417.2,154.5,418.3 M140.9,406.5c0.8-1,1.8-1.5,3-1.5c1.1,0,2.2,0.5,3.2,1.5
				c0.8,0.8,1.2,1.8,1.2,3v0.2c-0.1,1.1-0.5,2-1.2,3c-1,0.8-2.1,1.2-3.2,1.2c-1.1,0-2.1-0.4-3-1.2c-0.9-0.9-1.4-1.9-1.5-3v-0.2
				C139.5,408.3,140,407.3,140.9,406.5 M129.4,406.5c0.8-1,1.8-1.5,3-1.5c1.1,0,2.2,0.5,3.2,1.5c0.8,0.8,1.2,1.8,1.2,3v0.2
				c-0.1,1.1-0.5,2-1.2,3c-0.8,0.6-1.6,1.1-2.5,1.2c-0.2,0-0.5,0-0.7,0c-1.1,0-2.1-0.4-3-1.2c-1-1-1.5-2.1-1.5-3.2
				S128.4,407.3,129.4,406.5 M135.3,415.4c0.8-1,1.8-1.5,3-1.5c1.1,0,2.2,0.5,3.2,1.5c0.8,0.8,1.2,1.8,1.2,3c0,1.1-0.4,2.2-1.2,3.2
				c-1,0.8-2.1,1.2-3.2,1.2c-1.1,0-2.1-0.4-3-1.2c-1-1-1.5-2.1-1.5-3.2C133.8,417.2,134.3,416.2,135.3,415.4 M270.8,405.3
				c1,1,1.5,2.1,1.5,3.4c0,1.3-0.5,2.4-1.5,3.2c-0.8,1-1.9,1.5-3.2,1.5c-1.3,0-2.5-0.5-3.4-1.5c-0.8-0.8-1.2-1.8-1.2-3v-0.2
				c0-1.3,0.4-2.5,1.2-3.4c1-0.8,2.1-1.2,3.4-1.2C269,404,270,404.4,270.8,405.3 M276,409v-0.2c0-1.3,0.4-2.5,1.2-3.4
				c1-0.8,2.1-1.2,3.4-1.2s2.4,0.4,3.2,1.2c1,1,1.5,2.1,1.5,3.4c0,1.3-0.5,2.4-1.5,3.2c-0.8,1-1.9,1.5-3.2,1.5s-2.5-0.5-3.4-1.5
				C276.4,411.1,276,410.1,276,409 M257.8,405.3c1,1,1.5,2.1,1.5,3.4c0,1.3-0.5,2.4-1.5,3.2c-0.8,1-1.9,1.5-3.2,1.5
				s-2.5-0.5-3.4-1.5c-0.8-0.8-1.2-1.8-1.2-3v-0.2c0-1.3,0.4-2.5,1.2-3.4c1-0.8,2.1-1.2,3.4-1.2S257,404.4,257.8,405.3 M261.2,413.4
				c1.3,0,2.4,0.4,3.2,1.2c1,1,1.5,2.1,1.5,3.4c0,1.3-0.5,2.4-1.5,3.2c-0.8,1-1.9,1.5-3.2,1.5c-1.3,0-2.5-0.5-3.4-1.5
				c-0.8-0.8-1.2-1.8-1.2-3v-0.2c0-1.3,0.4-2.5,1.2-3.4C258.8,413.8,259.9,413.4,261.2,413.4 M274.3,413.4c1.3,0,2.4,0.4,3.2,1.2
				c1,1,1.5,2.1,1.5,3.4c0,1.3-0.5,2.4-1.5,3.2c-0.8,1-1.9,1.5-3.2,1.5c-1.3,0-2.5-0.5-3.4-1.5c-0.8-0.8-1.2-1.8-1.2-3v-0.2
				c0-1.3,0.4-2.5,1.2-3.4C271.8,413.8,273,413.4,274.3,413.4 M294.7,404c1.3,0,2.4,0.4,3.2,1.2c1,1,1.5,2.1,1.5,3.4
				c0,1.3-0.5,2.4-1.5,3.2c-0.8,1-1.9,1.5-3.2,1.5c-1.3,0-2.5-0.5-3.4-1.5c-0.8-0.8-1.2-1.8-1.2-3v-0.2c0-1.3,0.4-2.5,1.2-3.4
				C292.2,404.4,293.4,404,294.7,404 M282.7,418.3v-0.2c0-1.3,0.4-2.5,1.2-3.4c1-0.8,2.1-1.2,3.4-1.2s2.4,0.4,3.2,1.2
				c1,1,1.5,2.1,1.5,3.4c0,1.3-0.5,2.4-1.5,3.2c-0.8,1-1.9,1.5-3.2,1.5s-2.5-0.5-3.4-1.5C283.1,420.4,282.7,419.5,282.7,418.3
				 M297.9,414.6c1-0.8,2.1-1.2,3.4-1.2c1.3,0,2.4,0.4,3.2,1.2c1,1,1.5,2.1,1.5,3.4c0,1.3-0.5,2.4-1.5,3.2c-0.8,1-1.9,1.5-3.2,1.5
				c-1.3,0-2.5-0.5-3.4-1.5c-0.8-0.8-1.2-1.8-1.2-3v-0.2C296.7,416.7,297.1,415.6,297.9,414.6 M218.4,405.3c1,1,1.5,2.1,1.5,3.4
				c0,1.3-0.5,2.4-1.5,3.2c-0.8,1-1.9,1.5-3.2,1.5s-2.5-0.5-3.4-1.5c-0.8-0.8-1.2-1.8-1.2-3v-0.2c0-1.3,0.4-2.5,1.2-3.4
				c1-0.8,2.1-1.2,3.4-1.2S217.6,404.4,218.4,405.3 M223.6,409v-0.2c0-1.3,0.4-2.5,1.2-3.4c1-0.8,2.1-1.2,3.4-1.2
				c1.3,0,2.4,0.4,3.2,1.2c1,1,1.5,2.1,1.5,3.4c0,1.3-0.5,2.4-1.5,3.2c-0.8,1-1.9,1.5-3.2,1.5c-1.3,0-2.5-0.5-3.4-1.5
				C224,411.1,223.6,410.1,223.6,409 M221.9,413.4c1.3,0,2.4,0.4,3.2,1.2c1,1,1.5,2.1,1.5,3.4c0,1.3-0.5,2.4-1.5,3.2
				c-0.8,1-1.9,1.5-3.2,1.5c-1.3,0-2.5-0.5-3.4-1.5c-0.8-0.8-1.2-1.8-1.2-3v-0.2c0-1.3,0.4-2.5,1.2-3.4
				C219.4,413.8,220.6,413.4,221.9,413.4 M241.3,404c1.3,0,2.4,0.4,3.2,1.2c1,1,1.5,2.1,1.5,3.4c0,1.3-0.5,2.4-1.5,3.2
				c-0.8,1-1.9,1.5-3.2,1.5c-1.3,0-2.5-0.5-3.4-1.5c-0.8-0.8-1.2-1.8-1.2-3v-0.2c0-1.3,0.4-2.5,1.2-3.4
				C238.9,404.4,240,404,241.3,404 M234.9,413.4c1.3,0,2.4,0.4,3.2,1.2c1,1,1.5,2.1,1.5,3.4c0,1.3-0.5,2.4-1.5,3.2
				c-0.8,1-1.9,1.5-3.2,1.5c-1.3,0-2.5-0.5-3.4-1.5c-0.8-0.8-1.2-1.8-1.2-3v-0.2c0-1.3,0.4-2.5,1.2-3.4
				C232.5,413.8,233.6,413.4,234.9,413.4 M248,413.4c1.3,0,2.4,0.4,3.2,1.2c1,1,1.5,2.1,1.5,3.4c0,1.3-0.5,2.4-1.5,3.2
				c-0.8,1-1.9,1.5-3.2,1.5c-1.3,0-2.5-0.5-3.4-1.5c-0.8-0.8-1.2-1.8-1.2-3v-0.2c0-1.3,0.4-2.5,1.2-3.4
				C245.5,413.8,246.7,413.4,248,413.4 M373.2,404c1.3,0,2.4,0.4,3.2,1.2c1,1,1.5,2.1,1.5,3.4c0,1.3-0.5,2.4-1.5,3.2
				c-0.8,1-1.9,1.5-3.2,1.5c-1.3,0-2.5-0.5-3.4-1.5c-0.8-0.8-1.2-1.8-1.2-3v-0.2c0-1.3,0.4-2.5,1.2-3.4
				C370.7,404.4,371.9,404,373.2,404 M355.5,409v-0.2c0-1.3,0.4-2.5,1.2-3.4c1-0.8,2.1-1.2,3.4-1.2c1.3,0,2.4,0.4,3.2,1.2
				c1,1,1.5,2.1,1.5,3.4c0,1.3-0.5,2.4-1.5,3.2c-0.8,1-1.9,1.5-3.2,1.5c-1.3,0-2.5-0.5-3.4-1.5C355.9,411.1,355.5,410.1,355.5,409
				 M353.8,413.4c1.3,0,2.4,0.4,3.2,1.2c1,1,1.5,2.1,1.5,3.4c0,1.3-0.5,2.4-1.5,3.2c-0.8,1-1.9,1.5-3.2,1.5c-1.3,0-2.5-0.5-3.4-1.5
				c-0.8-0.8-1.2-1.8-1.2-3v-0.2c0-1.3,0.4-2.5,1.2-3.4C351.3,413.8,352.4,413.4,353.8,413.4 M362.1,418.3v-0.2
				c0-1.3,0.4-2.5,1.2-3.4c1-0.8,2.1-1.2,3.4-1.2c1.3,0,2.4,0.4,3.2,1.2c1,1,1.5,2.1,1.5,3.4c0,1.3-0.5,2.4-1.5,3.2
				c-0.8,1-1.9,1.5-3.2,1.5c-1.3,0-2.5-0.5-3.4-1.5C362.5,420.4,362.1,419.5,362.1,418.3 M376.4,421.3c-0.8-0.8-1.2-1.8-1.2-3v-0.2
				c0-1.3,0.4-2.5,1.2-3.4c1-0.8,2.1-1.2,3.4-1.2c1.3,0,2.4,0.4,3.2,1.2c1,1,1.5,2.1,1.5,3.4c0,1.3-0.5,2.4-1.5,3.2
				c-0.8,1-1.9,1.5-3.2,1.5C378.5,422.7,377.4,422.2,376.4,421.3 M316.1,408.7c0-1.3,0.4-2.5,1.2-3.4c1-0.8,2.1-1.2,3.4-1.2
				c1.3,0,2.4,0.4,3.2,1.2c1,1,1.5,2.1,1.5,3.4c0,1.3-0.5,2.4-1.5,3.2c-0.8,1-1.9,1.5-3.2,1.5c-1.3,0-2.5-0.5-3.4-1.5
				c-0.8-0.8-1.2-1.8-1.2-3V408.7 M304.3,405.3c1-0.8,2.1-1.2,3.4-1.2s2.4,0.4,3.2,1.2c1,1,1.5,2.1,1.5,3.4c0,1.3-0.5,2.4-1.5,3.2
				c-0.8,1-1.9,1.5-3.2,1.5s-2.5-0.5-3.4-1.5c-0.8-0.8-1.2-1.8-1.2-3v-0.2C303.1,407.4,303.5,406.3,304.3,405.3 M310.9,414.6
				c1-0.8,2.1-1.2,3.4-1.2c1.3,0,2.4,0.4,3.2,1.2c1,1,1.5,2.1,1.5,3.4c0,1.3-0.5,2.4-1.5,3.2c-0.8,1-1.9,1.5-3.2,1.5
				c-1.3,0-2.5-0.5-3.4-1.5c-0.8-0.8-1.2-1.8-1.2-3v-0.2C309.7,416.7,310.1,415.6,310.9,414.6 M324,414.6c1-0.8,2.1-1.2,3.4-1.2
				c1.3,0,2.4,0.4,3.2,1.2c1,1,1.5,2.1,1.5,3.4c0,1.3-0.5,2.4-1.5,3.2c-0.8,1-1.9,1.5-3.2,1.5c-1.3,0-2.5-0.5-3.4-1.5
				c-0.8-0.8-1.2-1.8-1.2-3v-0.2C322.8,416.7,323.2,415.6,324,414.6 M342.4,409v-0.2c0-1.3,0.4-2.5,1.2-3.4c1-0.8,2.1-1.2,3.4-1.2
				c1.3,0,2.4,0.4,3.2,1.2c1,1,1.5,2.1,1.5,3.4c0,1.3-0.5,2.4-1.5,3.2c-0.8,1-1.9,1.5-3.2,1.5c-1.3,0-2.5-0.5-3.4-1.5
				C342.8,411.1,342.4,410.1,342.4,409 M329.4,408.7c0-1.3,0.4-2.5,1.2-3.4c1-0.8,2.1-1.2,3.4-1.2c1.3,0,2.4,0.4,3.2,1.2
				c1,1,1.5,2.1,1.5,3.4c0,1.3-0.5,2.4-1.5,3.2c-0.8,1-1.9,1.5-3.2,1.5c-1.3,0-2.5-0.5-3.4-1.5c-0.8-0.8-1.2-1.8-1.2-3V408.7
				 M337.3,421.3c-0.8-0.8-1.2-1.8-1.2-3v-0.2c0-1.3,0.4-2.5,1.2-3.4c1-0.8,2.1-1.2,3.4-1.2s2.4,0.4,3.2,1.2c1,1,1.5,2.1,1.5,3.4
				c0,1.3-0.5,2.4-1.5,3.2c-0.8,1-1.9,1.5-3.2,1.5S338.3,422.2,337.3,421.3z"/>
		</g>
	</g>
	<g>
		<path id="a" class="st0" d="M173.2,429.6H431V209.9h-3.4c-4.8-0.7-8.9-2.8-12.5-6.4c-4.4-4.4-6.6-9.8-6.6-16
			c0-6.4,2.2-11.8,6.6-16.2c4.4-4.3,9.8-6.4,16-6.4V67.5H68.4V162v5.4c5.5,0.4,10.3,2.5,14.3,6.4c4.4,4.4,6.6,9.8,6.6,16.2
			c0,6.2-2.2,11.6-6.6,16c-3.6,3.6-7.8,5.7-12.5,6.4 M68.4,212.4v217.2h56.3h48.5 M133.1,114.7h231.7c13.1,0,19.7,6.6,19.7,19.7
			v231.7c0,7.4-2.1,12.8-6.3,16c-3.3,2.5-7.7,3.7-13.4,3.7H133.1c-13.1,0-19.7-6.6-19.7-19.7V134.4
			C113.4,121.3,120,114.7,133.1,114.7z"/>
	</g>
</g>
</svg>
