<svg xmlns="http://www.w3.org/2000/svg" xml:space="preserve" viewBox="0 0 500 500"><path d="M124.7 429.6v.5h48.5v-.5zM68.4 167.4V162h-1.7v5.4zm346.6 3.9c4.4-4.3 9.8-6.4 16-6.4V67.5H68.4v99.9c5.5.4 10.3 2.5 14.3 6.4q6.6 6.6 6.6 16.2c0 6.2-2.2 11.6-6.6 16-3.6 3.6-7.8 5.7-12.5 6.4h-1.7v217.2H431V209.9h-3.4c-4.8-.7-8.9-2.8-12.5-6.4-4.4-4.4-6.6-9.8-6.6-16-.1-6.4 2.1-11.8 6.5-16.2m3.9-97.9c1.3 0 2.4.4 3.2 1.2 1 1 1.5 2.1 1.5 3.4s-.5 2.4-1.5 3.2c-.8 1-1.9 1.5-3.2 1.5-.8 0-1.6-.2-2.2-.5-.5-.3-.9-.7-1.2-1q-1.2-1.2-1.2-3V78c0-1.3.4-2.5 1.2-3.4.3-.3.7-.6 1.2-.7.7-.3 1.4-.5 2.2-.5m-.2 41.3h.2c1.3 0 2.5.4 3.4 1.2.8 1 1.2 2.1 1.2 3.4s-.4 2.4-1.2 3.2c-1 1-2.1 1.5-3.4 1.5s-2.4-.5-3.2-1.5c-1-.8-1.5-1.9-1.5-3.2s.5-2.5 1.5-3.4q1.35-1.2 3-1.2m0 13.1h.2c1.3 0 2.5.4 3.4 1.2.8 1 1.2 2.1 1.2 3.4s-.4 2.4-1.2 3.2c-1 1-2.1 1.5-3.4 1.5s-2.4-.5-3.2-1.5c-1-.8-1.5-1.9-1.5-3.2s.5-2.5 1.5-3.4q1.35-1.2 3-1.2m-9.3-6.4h.2c1.3 0 2.5.4 3.4 1.2.8 1 1.2 2.1 1.2 3.4s-.4 2.4-1.2 3.2c-1 1-2.1 1.5-3.4 1.5s-2.4-.5-3.2-1.5c-1-.8-1.5-1.9-1.5-3.2s.5-2.5 1.5-3.4q1.2-1.2 3-1.2m.2 13c1.3 0 2.5.4 3.4 1.2.8 1 1.2 2.1 1.2 3.4s-.4 2.4-1.2 3.2c-1 1-2.1 1.5-3.4 1.5s-2.4-.5-3.2-1.5c-1-.8-1.5-1.9-1.5-3.2s.5-2.5 1.5-3.4q1.2-1.2 3-1.2zm-.2 13h.2c1.3 0 2.5.4 3.4 1.2.8 1 1.2 2.1 1.2 3.4s-.4 2.4-1.2 3.2c-1 1-2.1 1.5-3.4 1.5s-2.4-.5-3.2-1.5c-1-.8-1.5-1.9-1.5-3.2s.5-2.5 1.5-3.4c.8-.7 1.8-1.2 3-1.2m9.3-6.6h.2c1.3 0 2.5.4 3.4 1.2.8 1 1.2 2.1 1.2 3.4s-.4 2.4-1.2 3.2c-1 1-2.1 1.5-3.4 1.5s-2.4-.5-3.2-1.5c-1-.8-1.5-1.9-1.5-3.2s.5-2.5 1.5-3.4q1.35-1.2 3-1.2m-8.9 82.4q1.65 0 3 1.2c1 1 1.5 2.1 1.5 3.4s-.5 2.4-1.5 3.2c-.8 1-1.9 1.5-3.2 1.5s-2.5-.5-3.4-1.5c-.8-.8-1.2-1.9-1.2-3.2s.4-2.5 1.2-3.4c1-.8 2.1-1.2 3.4-1.2zm-4.9 17.7c0-1.3.4-2.5 1.2-3.4 1-.8 2.1-1.2 3.4-1.2h.2q1.65 0 3 1.2c1 1 1.5 2.1 1.5 3.4s-.5 2.4-1.5 3.2c-.8 1-1.9 1.5-3.2 1.5s-2.5-.5-3.4-1.5c-.8-.8-1.2-1.9-1.2-3.2m17.2-9.8c1 1 1.5 2.1 1.5 3.4s-.5 2.4-1.5 3.2c-.8 1-1.9 1.5-3.2 1.5s-2.5-.5-3.4-1.5c-.8-.8-1.2-1.9-1.2-3.2s.4-2.5 1.2-3.4c1-.8 2.1-1.2 3.4-1.2h.2q1.8 0 3 1.2m0 13c1 1 1.5 2.1 1.5 3.4s-.5 2.4-1.5 3.2c-.8 1-1.9 1.5-3.2 1.5s-2.5-.5-3.4-1.5c-.8-.8-1.2-1.9-1.2-3.2s.4-2.5 1.2-3.4c1-.8 2.1-1.2 3.4-1.2h.2q1.8 0 3 1.2m-3.2 11.8h.2q1.65 0 3 1.2c1 1 1.5 2.1 1.5 3.4s-.5 2.4-1.5 3.2c-.8 1-1.9 1.5-3.2 1.5s-2.5-.5-3.4-1.5c-.8-.8-1.2-1.9-1.2-3.2s.4-2.5 1.2-3.4c1-.8 2.1-1.2 3.4-1.2m-9.3-6.6h.2q1.65 0 3 1.2c1 1 1.5 2.1 1.5 3.4s-.5 2.4-1.5 3.2c-.8 1-1.9 1.5-3.2 1.5s-2.5-.5-3.4-1.5c-.8-.8-1.2-1.9-1.2-3.2s.4-2.5 1.2-3.4c.9-.8 2.1-1.2 3.4-1.2m0 13.3h.2q1.65 0 3 1.2c1 1 1.5 2.1 1.5 3.4s-.5 2.4-1.5 3.2c-.8 1-1.9 1.5-3.2 1.5s-2.5-.5-3.4-1.5c-.8-.8-1.2-1.9-1.2-3.2s.4-2.5 1.2-3.4c.9-.8 2.1-1.2 3.4-1.2m9.3 6.6h.2q1.65 0 3 1.2c1 1 1.5 2.1 1.5 3.4s-.5 2.4-1.5 3.2c-.8 1-1.9 1.5-3.2 1.5s-2.5-.5-3.4-1.5c-.8-.8-1.2-1.9-1.2-3.2s.4-2.5 1.2-3.4c1-.8 2.1-1.2 3.4-1.2m0 13.1h.2q1.65 0 3 1.2c1 1 1.5 2.1 1.5 3.4s-.5 2.4-1.5 3.2c-.8 1-1.9 1.5-3.2 1.5s-2.5-.5-3.4-1.5c-.8-.8-1.2-1.9-1.2-3.2s.4-2.5 1.2-3.4c1-.8 2.1-1.2 3.4-1.2m-9.1-6.7q1.65 0 3 1.2c1 1 1.5 2.1 1.5 3.4s-.5 2.4-1.5 3.2c-.8 1-1.9 1.5-3.2 1.5s-2.5-.5-3.4-1.5c-.8-.8-1.2-1.9-1.2-3.2s.4-2.5 1.2-3.4c1-.8 2.1-1.2 3.4-1.2zm0 13.1q1.65 0 3 1.2c1 1 1.5 2.1 1.5 3.4s-.5 2.4-1.5 3.2c-.8 1-1.9 1.5-3.2 1.5s-2.5-.5-3.4-1.5c-.8-.8-1.2-1.9-1.2-3.2s.4-2.5 1.2-3.4c1-.8 2.1-1.2 3.4-1.2zm-.2 12.7c1.3 0 2.5.5 3.4 1.5.8.8 1.2 1.9 1.2 3.2s-.4 2.5-1.2 3.4c-1 .8-2.1 1.2-3.4 1.2h-.2q-1.65 0-3-1.2c-1-1-1.5-2.1-1.5-3.4s.5-2.4 1.5-3.2c.8-1 1.9-1.5 3.2-1.5m9.3-6.1h.2q1.65 0 3 1.2c1 1 1.5 2.1 1.5 3.4s-.5 2.4-1.5 3.2c-.8 1-1.9 1.5-3.2 1.5s-2.5-.5-3.4-1.5c-.8-.8-1.2-1.9-1.2-3.2s.4-2.5 1.2-3.4c1-.8 2.1-1.2 3.4-1.2m-3.2 14.3c.8-1 1.9-1.5 3.2-1.5s2.5.5 3.4 1.5c.8.8 1.2 1.9 1.2 3.2s-.4 2.5-1.2 3.4c-1 .8-2.1 1.2-3.4 1.2h-.2q-1.65 0-3-1.2c-1-1-1.5-2.1-1.5-3.4s.6-2.4 1.5-3.2m-6.1 4.9c1.3 0 2.5.5 3.4 1.5.8.8 1.2 1.9 1.2 3.2s-.4 2.5-1.2 3.4c-1 .8-2.1 1.2-3.4 1.2h-.2q-1.65 0-3-1.2c-1-1-1.5-2.1-1.5-3.4s.5-2.4 1.5-3.2c.8-1 1.9-1.5 3.2-1.5m-4.7 17.7c0-1.3.5-2.4 1.5-3.2.8-1 1.9-1.5 3.2-1.5s2.5.5 3.4 1.5c.8.8 1.2 1.9 1.2 3.2s-.4 2.5-1.2 3.4c-1 .8-2.1 1.2-3.4 1.2h-.2q-1.65 0-3-1.2c-1-.9-1.5-2.1-1.5-3.4m17.5-9.6c.8.8 1.2 1.9 1.2 3.2s-.4 2.5-1.2 3.4c-1 .8-2.1 1.2-3.4 1.2h-.2q-1.65 0-3-1.2c-1-1-1.5-2.1-1.5-3.4s.5-2.4 1.5-3.2c.8-1 1.9-1.5 3.2-1.5s2.4.5 3.4 1.5m0 13c.8.8 1.2 1.9 1.2 3.2s-.4 2.5-1.2 3.4c-1 .8-2.1 1.2-3.4 1.2h-.2q-1.65 0-3-1.2c-1-1-1.5-2.1-1.5-3.4s.5-2.4 1.5-3.2c.8-1 1.9-1.5 3.2-1.5 1.3.1 2.4.6 3.4 1.5m-6.7 13.3c.8-1 1.9-1.5 3.2-1.5s2.5.5 3.4 1.5c.8.8 1.2 1.9 1.2 3.2s-.4 2.5-1.2 3.4c-1 .8-2.1 1.2-3.4 1.2h-.2q-1.65 0-3-1.2c-1-1-1.5-2.1-1.5-3.4.1-1.3.6-2.4 1.5-3.2m-9.3 0c-1-1-1.5-2.1-1.5-3.4s.5-2.4 1.5-3.2c.8-1 1.9-1.5 3.2-1.5s2.5.5 3.4 1.5c.8.8 1.2 1.9 1.2 3.2s-.4 2.5-1.2 3.4c-1 .8-2.1 1.2-3.4 1.2h-.2c-1.2.1-2.2-.4-3-1.2m3.2 4.9c1.3 0 2.5.5 3.4 1.5.8.8 1.2 1.9 1.2 3.2s-.4 2.5-1.2 3.4c-1 .8-2.1 1.2-3.4 1.2h-.2q-1.65 0-3-1.2c-1-1-1.5-2.1-1.5-3.4s.5-2.4 1.5-3.2c.8-1 1.9-1.5 3.2-1.5m6.1 8.2c.8-1 1.9-1.5 3.2-1.5s2.5.5 3.4 1.5c.8.8 1.2 1.9 1.2 3.2s-.4 2.5-1.2 3.4c-1 .8-2.1 1.2-3.4 1.2h-.2q-1.65 0-3-1.2c-1-1-1.5-2.1-1.5-3.4.1-1.3.6-2.4 1.5-3.2m0 13c.8-1 1.9-1.5 3.2-1.5s2.5.5 3.4 1.5c.8.8 1.2 1.9 1.2 3.2s-.4 2.5-1.2 3.4c-1 .8-2.1 1.2-3.4 1.2h-.2q-1.65 0-3-1.2c-1-1-1.5-2.1-1.5-3.4.1-1.3.6-2.4 1.5-3.2m-6.1-8.1c1.3 0 2.5.5 3.4 1.5.8.8 1.2 1.9 1.2 3.2s-.4 2.5-1.2 3.4c-1 .8-2.1 1.2-3.4 1.2h-.2q-1.65 0-3-1.2c-1-1-1.5-2.1-1.5-3.4s.5-2.4 1.5-3.2c.8-1 1.9-1.5 3.2-1.5m4.7 51.9v-.2c0-1.3.4-2.5 1.2-3.4 1-.8 2.1-1.2 3.4-1.2s2.4.4 3.2 1.2c1 1 1.5 2.1 1.5 3.4s-.5 2.4-1.5 3.2c-.8 1-1.9 1.5-3.2 1.5s-2.5-.5-3.4-1.5q-1.2-1.35-1.2-3M348.6 89.9c0-1.3.5-2.5 1.5-3.4q1.2-1.2 3-1.2h.2c1.3 0 2.5.4 3.4 1.2.8 1 1.2 2.1 1.2 3.4s-.4 2.4-1.2 3.2c-1 1-2.1 1.5-3.4 1.5s-2.4-.5-3.2-1.5c-1-.8-1.5-1.9-1.5-3.2M310 76.6c.8 1 1.2 2.1 1.2 3.4s-.4 2.4-1.2 3.2c-1 1-2.1 1.5-3.4 1.5s-2.4-.5-3.2-1.5c-1-.8-1.5-1.9-1.5-3.2s.5-2.5 1.5-3.4q1.2-1.2 3-1.2h.2c1.2 0 2.4.4 3.4 1.2m3.4 3.4c0-1.3.5-2.5 1.5-3.4q1.2-1.2 3-1.2h.2c1.3 0 2.5.4 3.4 1.2.8 1 1.2 2.1 1.2 3.4s-.4 2.4-1.2 3.2c-1 1-2.1 1.5-3.4 1.5s-2.4-.5-3.2-1.5c-1-.8-1.5-1.9-1.5-3.2m-9.1 6.4c.8 1 1.2 2.1 1.2 3.4s-.4 2.4-1.2 3.2c-1 1-2.1 1.5-3.4 1.5s-2.4-.5-3.2-1.5c-1-.8-1.5-1.9-1.5-3.2s.5-2.5 1.5-3.4q1.2-1.2 3-1.2h.2c1.3 0 2.4.4 3.4 1.2m7.9-1.2h.2c1.3 0 2.5.4 3.4 1.2.8 1 1.2 2.1 1.2 3.4s-.4 2.4-1.2 3.2c-1 1-2.1 1.5-3.4 1.5s-2.4-.5-3.2-1.5c-1-.8-1.5-1.9-1.5-3.2s.5-2.5 1.5-3.4q1.2-1.2 3-1.2m50.2-8.6c.8 1 1.2 2.1 1.2 3.4s-.4 2.4-1.2 3.2c-1 1-2.1 1.5-3.4 1.5s-2.4-.5-3.2-1.5c-1-.8-1.5-1.9-1.5-3.2s.5-2.5 1.5-3.4q1.2-1.2 3-1.2h.2c1.2 0 2.4.4 3.4 1.2m-.8 9.8q1.2-1.2 3-1.2h.2c1.3 0 2.5.4 3.4 1.2.8 1 1.2 2.1 1.2 3.4s-.4 2.4-1.2 3.2c-1 1-2.1 1.5-3.4 1.5s-2.4-.5-3.2-1.5c-1-.8-1.5-1.9-1.5-3.2 0-1.2.5-2.4 1.5-3.4m12.3-9.8c.8 1 1.2 2.1 1.2 3.4s-.4 2.4-1.2 3.2c-1 1-2.1 1.5-3.4 1.5s-2.4-.5-3.2-1.5c-1-.8-1.5-1.9-1.5-3.2s.5-2.5 1.5-3.4q1.2-1.2 3-1.2h.2c1.3 0 2.4.4 3.4 1.2m-124.5-1.2h.2c1.3 0 2.5.4 3.4 1.2.8 1 1.2 2.1 1.2 3.4s-.4 2.4-1.2 3.2c-1 1-2.1 1.5-3.4 1.5s-2.4-.5-3.2-1.5c-1-.8-1.5-1.9-1.5-3.2s.5-2.5 1.5-3.4q1.35-1.2 3-1.2m-8.6 11q1.2-1.2 3-1.2h.2c1.3 0 2.5.4 3.4 1.2.8 1 1.2 2.1 1.2 3.4s-.4 2.4-1.2 3.2c-1 1-2.1 1.5-3.4 1.5s-2.4-.5-3.2-1.5c-1-.8-1.5-1.9-1.5-3.2.1-1.2.5-2.4 1.5-3.4m10.1 3.5c0-1.3.5-2.5 1.5-3.4q1.2-1.2 3-1.2h.2c1.3 0 2.5.4 3.4 1.2.8 1 1.2 2.1 1.2 3.4s-.4 2.4-1.2 3.2c-1 1-2.1 1.5-3.4 1.5s-2.4-.5-3.2-1.5c-1-.8-1.5-1.9-1.5-3.2m10.3-14.5c1.3 0 2.5.4 3.4 1.2.8 1 1.2 2.1 1.2 3.4s-.4 2.4-1.2 3.2c-1 1-2.1 1.5-3.4 1.5s-2.4-.5-3.2-1.5c-1-.8-1.5-1.9-1.5-3.2s.5-2.5 1.5-3.4q1.2-1.2 3-1.2zm103.6 39.3c13.1 0 19.7 6.6 19.7 19.7v231.7c0 7.4-2.1 12.8-6.4 16-3.2 2.5-7.6 3.7-13.3 3.7H133.1c-13.1 0-19.7-6.6-19.7-19.7V134.4c0-13.1 6.6-19.7 19.7-19.7zM143.7 73.4c1.3 0 2.5.4 3.4 1.2.8 1 1.2 2.1 1.2 3.4s-.4 2.4-1.2 3.2c-1 1-2.1 1.5-3.4 1.5s-2.4-.5-3.2-1.5c-1-.8-1.5-1.9-1.5-3.2s.5-2.5 1.5-3.4q1.2-1.2 3-1.2zm-11.6 0c1.3 0 2.5.4 3.4 1.2.8 1 1.2 2.1 1.2 3.4s-.4 2.4-1.2 3.2c-1 1-2.1 1.5-3.4 1.5s-2.4-.5-3.2-1.5c-1-.8-1.5-1.9-1.5-3.2s.5-2.5 1.5-3.4q1.2-1.2 3-1.2zm-2.2 11.1c.8 1 1.2 2.1 1.2 3.4s-.4 2.4-1.2 3.2c-1 1-2.1 1.5-3.4 1.5s-2.4-.5-3.2-1.5c-1-.8-1.5-1.9-1.5-3.2s.5-2.5 1.5-3.4q1.2-1.2 3-1.2h.2c1.2-.1 2.4.3 3.4 1.2m7.8-1.3h.2c1.3 0 2.5.4 3.4 1.2.8 1 1.2 2.1 1.2 3.4s-.4 2.4-1.2 3.2c-1 1-2.1 1.5-3.4 1.5s-2.4-.5-3.2-1.5c-1-.8-1.5-1.9-1.5-3.2s.5-2.5 1.5-3.4q1.35-1.2 3-1.2m-51.6-8.8c2.5 0 4.5.8 6.2 2.5q3 3 3 6.6c0 2.5-1 4.5-3 6.2-1.6 2-3.7 3-6.2 3q-3.75 0-6.6-3C77.8 88 77 85.9 77 83.5c0-2.5.8-4.7 2.5-6.6 1.9-1.7 4.1-2.5 6.6-2.5M75.8 358.3c0-1.1.4-2.2 1.2-3.2 1-.8 2.1-1.2 3.2-1.2q1.65 0 3 1.2c1 1 1.5 2.1 1.5 3.2q0 1.65-1.5 3-1.2 1.5-3 1.5c-1.1 0-2.2-.5-3.2-1.5q-1.2-1.35-1.2-3m10 2.2c1-.8 2.1-1.2 3.2-1.2s2.1.4 3 1.2c1 1 1.5 2.1 1.5 3.2q0 1.65-1.5 3-1.2 1.5-3 1.5c-1.8 0-2.2-.5-3.2-1.5q-1.2-1.2-1.2-3c0-1.2.4-2.2 1.2-3.2m6.2 12c1 1 1.5 2.1 1.5 3.2q0 1.65-1.5 3-1.2 1.5-3 1.5c-1.8 0-2.2-.5-3.2-1.5q-1.2-1.2-1.2-3c0-1.1.4-2.2 1.2-3.2 1-.8 2.1-1.2 3.2-1.2s2.2.4 3 1.2m-11.8-7.3q1.65 0 3 1.2c1 1 1.5 2.1 1.5 3.2s-.5 2.1-1.5 3q-1.2 1.5-3 1.5c-1.1 0-2.2-.5-3.2-1.5q-1.2-1.2-1.2-3c0-1.8.4-2.2 1.2-3.2 1-.8 2-1.2 3.2-1.2m0 11.8q1.65 0 3 1.2c1 1 1.5 2.1 1.5 3.2q0 1.65-1.5 3-1.2 1.5-3 1.5c-1.1 0-2.2-.5-3.2-1.5q-1.2-1.2-1.2-3c0-1.1.4-2.2 1.2-3.2 1-.8 2-1.2 3.2-1.2m5.6 7.1c1-.8 2.1-1.2 3.2-1.2s2.1.4 3 1.2c1 1 1.5 2.1 1.5 3.2q0 1.65-1.5 3-1.2 1.5-3 1.5c-1.8 0-2.2-.5-3.2-1.5q-1.2-1.2-1.2-3c0-1.1.4-2.2 1.2-3.2m-10 40.6v-23.9l23.9 23.9zM156 405c1.1 0 2.2.5 3.2 1.5q1.2 1.2 1.2 3c0 .9-.2 1.7-.7 2.5-.1.3-.3.5-.5.7-1 .8-2.1 1.2-3.2 1.2s-2.1-.4-3-1.2q-1.35-1.35-1.5-3v-.2q0-1.65 1.5-3 1.2-1.5 3-1.5m5.4 8.9c1.1 0 2.2.5 3.2 1.5q1.2 1.2 1.2 3c0 1.1-.4 2.2-1.2 3.2-1 .8-2.1 1.2-3.2 1.2-.6 0-1.2-.2-1.7-.5-.4-.1-.9-.4-1.2-.7-1-1-1.5-2.1-1.5-3.2q0-1.65 1.5-3c.4-.5.8-.8 1.2-1 .5-.4 1-.5 1.7-.5m-6.9 4.4c0 1.1-.4 2.2-1.2 3.2-1 .8-2.1 1.2-3.2 1.2q-1.65 0-3-1.2c-1-1-1.5-2.1-1.5-3.2q0-1.65 1.5-3 1.2-1.5 3-1.5c1.1 0 2.2.5 3.2 1.5q1.2 1.35 1.2 3m-13.6-11.8q1.2-1.5 3-1.5c1.1 0 2.2.5 3.2 1.5q1.2 1.2 1.2 3v.2c-.1 1.1-.5 2-1.2 3-1 .8-2.1 1.2-3.2 1.2q-1.65 0-3-1.2-1.35-1.35-1.5-3v-.2q.15-1.8 1.5-3m-11.5 0q1.2-1.5 3-1.5c1.1 0 2.2.5 3.2 1.5q1.2 1.2 1.2 3v.2c-.1 1.1-.5 2-1.2 3-.8.6-1.6 1.1-2.5 1.2h-.7q-1.65 0-3-1.2c-1-1-1.5-2.1-1.5-3.2s.5-2.2 1.5-3m5.9 8.9q1.2-1.5 3-1.5c1.1 0 2.2.5 3.2 1.5q1.2 1.2 1.2 3c0 1.1-.4 2.2-1.2 3.2-1 .8-2.1 1.2-3.2 1.2q-1.65 0-3-1.2c-1-1-1.5-2.1-1.5-3.2q0-1.8 1.5-3m135.5-10.1c1 1 1.5 2.1 1.5 3.4s-.5 2.4-1.5 3.2c-.8 1-1.9 1.5-3.2 1.5s-2.5-.5-3.4-1.5q-1.2-1.2-1.2-3v-.2c0-1.3.4-2.5 1.2-3.4 1-.8 2.1-1.2 3.4-1.2 1.4-.1 2.4.3 3.2 1.2m5.2 3.7v-.2c0-1.3.4-2.5 1.2-3.4 1-.8 2.1-1.2 3.4-1.2s2.4.4 3.2 1.2c1 1 1.5 2.1 1.5 3.4s-.5 2.4-1.5 3.2c-.8 1-1.9 1.5-3.2 1.5s-2.5-.5-3.4-1.5q-1.2-1.35-1.2-3m-18.2-3.7c1 1 1.5 2.1 1.5 3.4s-.5 2.4-1.5 3.2c-.8 1-1.9 1.5-3.2 1.5s-2.5-.5-3.4-1.5q-1.2-1.2-1.2-3v-.2c0-1.3.4-2.5 1.2-3.4 1-.8 2.1-1.2 3.4-1.2s2.4.3 3.2 1.2m3.4 8.1c1.3 0 2.4.4 3.2 1.2 1 1 1.5 2.1 1.5 3.4s-.5 2.4-1.5 3.2c-.8 1-1.9 1.5-3.2 1.5s-2.5-.5-3.4-1.5q-1.2-1.2-1.2-3v-.2c0-1.3.4-2.5 1.2-3.4 1-.8 2.1-1.2 3.4-1.2m13.1 0c1.3 0 2.4.4 3.2 1.2 1 1 1.5 2.1 1.5 3.4s-.5 2.4-1.5 3.2c-.8 1-1.9 1.5-3.2 1.5s-2.5-.5-3.4-1.5q-1.2-1.2-1.2-3v-.2c0-1.3.4-2.5 1.2-3.4.9-.8 2.1-1.2 3.4-1.2m20.4-9.4c1.3 0 2.4.4 3.2 1.2 1 1 1.5 2.1 1.5 3.4s-.5 2.4-1.5 3.2c-.8 1-1.9 1.5-3.2 1.5s-2.5-.5-3.4-1.5q-1.2-1.2-1.2-3v-.2c0-1.3.4-2.5 1.2-3.4.9-.8 2.1-1.2 3.4-1.2m-12 14.3v-.2c0-1.3.4-2.5 1.2-3.4 1-.8 2.1-1.2 3.4-1.2s2.4.4 3.2 1.2c1 1 1.5 2.1 1.5 3.4s-.5 2.4-1.5 3.2c-.8 1-1.9 1.5-3.2 1.5s-2.5-.5-3.4-1.5c-.8-.9-1.2-1.8-1.2-3m15.2-3.7c1-.8 2.1-1.2 3.4-1.2s2.4.4 3.2 1.2c1 1 1.5 2.1 1.5 3.4s-.5 2.4-1.5 3.2c-.8 1-1.9 1.5-3.2 1.5s-2.5-.5-3.4-1.5q-1.2-1.2-1.2-3v-.2c0-1.3.4-2.4 1.2-3.4m-79.5-9.3c1 1 1.5 2.1 1.5 3.4s-.5 2.4-1.5 3.2c-.8 1-1.9 1.5-3.2 1.5s-2.5-.5-3.4-1.5q-1.2-1.2-1.2-3v-.2c0-1.3.4-2.5 1.2-3.4 1-.8 2.1-1.2 3.4-1.2s2.4.3 3.2 1.2m5.2 3.7v-.2c0-1.3.4-2.5 1.2-3.4 1-.8 2.1-1.2 3.4-1.2s2.4.4 3.2 1.2c1 1 1.5 2.1 1.5 3.4s-.5 2.4-1.5 3.2c-.8 1-1.9 1.5-3.2 1.5s-2.5-.5-3.4-1.5q-1.2-1.35-1.2-3m-1.7 4.4c1.3 0 2.4.4 3.2 1.2 1 1 1.5 2.1 1.5 3.4s-.5 2.4-1.5 3.2c-.8 1-1.9 1.5-3.2 1.5s-2.5-.5-3.4-1.5q-1.2-1.2-1.2-3v-.2c0-1.3.4-2.5 1.2-3.4.9-.8 2.1-1.2 3.4-1.2m19.4-9.4c1.3 0 2.4.4 3.2 1.2 1 1 1.5 2.1 1.5 3.4s-.5 2.4-1.5 3.2c-.8 1-1.9 1.5-3.2 1.5s-2.5-.5-3.4-1.5q-1.2-1.2-1.2-3v-.2c0-1.3.4-2.5 1.2-3.4 1-.8 2.1-1.2 3.4-1.2m-6.4 9.4c1.3 0 2.4.4 3.2 1.2 1 1 1.5 2.1 1.5 3.4s-.5 2.4-1.5 3.2c-.8 1-1.9 1.5-3.2 1.5s-2.5-.5-3.4-1.5q-1.2-1.2-1.2-3v-.2c0-1.3.4-2.5 1.2-3.4 1-.8 2.1-1.2 3.4-1.2m13.1 0c1.3 0 2.4.4 3.2 1.2 1 1 1.5 2.1 1.5 3.4s-.5 2.4-1.5 3.2c-.8 1-1.9 1.5-3.2 1.5s-2.5-.5-3.4-1.5q-1.2-1.2-1.2-3v-.2c0-1.3.4-2.5 1.2-3.4.9-.8 2.1-1.2 3.4-1.2m125.2-9.4c1.3 0 2.4.4 3.2 1.2 1 1 1.5 2.1 1.5 3.4s-.5 2.4-1.5 3.2c-.8 1-1.9 1.5-3.2 1.5s-2.5-.5-3.4-1.5q-1.2-1.2-1.2-3v-.2c0-1.3.4-2.5 1.2-3.4.9-.8 2.1-1.2 3.4-1.2m-17.7 5v-.2c0-1.3.4-2.5 1.2-3.4 1-.8 2.1-1.2 3.4-1.2s2.4.4 3.2 1.2c1 1 1.5 2.1 1.5 3.4s-.5 2.4-1.5 3.2c-.8 1-1.9 1.5-3.2 1.5s-2.5-.5-3.4-1.5q-1.2-1.35-1.2-3m-1.7 4.4c1.3 0 2.4.4 3.2 1.2 1 1 1.5 2.1 1.5 3.4s-.5 2.4-1.5 3.2c-.8 1-1.9 1.5-3.2 1.5s-2.5-.5-3.4-1.5q-1.2-1.2-1.2-3v-.2c0-1.3.4-2.5 1.2-3.4.9-.8 2-1.2 3.4-1.2m8.3 4.9v-.2c0-1.3.4-2.5 1.2-3.4 1-.8 2.1-1.2 3.4-1.2s2.4.4 3.2 1.2c1 1 1.5 2.1 1.5 3.4s-.5 2.4-1.5 3.2c-.8 1-1.9 1.5-3.2 1.5s-2.5-.5-3.4-1.5c-.8-.9-1.2-1.8-1.2-3m14.3 3q-1.2-1.2-1.2-3v-.2c0-1.3.4-2.5 1.2-3.4 1-.8 2.1-1.2 3.4-1.2s2.4.4 3.2 1.2c1 1 1.5 2.1 1.5 3.4s-.5 2.4-1.5 3.2c-.8 1-1.9 1.5-3.2 1.5-1.3-.1-2.4-.6-3.4-1.5m-60.3-12.6c0-1.3.4-2.5 1.2-3.4 1-.8 2.1-1.2 3.4-1.2s2.4.4 3.2 1.2c1 1 1.5 2.1 1.5 3.4s-.5 2.4-1.5 3.2c-.8 1-1.9 1.5-3.2 1.5s-2.5-.5-3.4-1.5q-1.2-1.2-1.2-3zm-11.8-3.4c1-.8 2.1-1.2 3.4-1.2s2.4.4 3.2 1.2c1 1 1.5 2.1 1.5 3.4s-.5 2.4-1.5 3.2c-.8 1-1.9 1.5-3.2 1.5s-2.5-.5-3.4-1.5q-1.2-1.2-1.2-3v-.2c0-1.3.4-2.4 1.2-3.4m6.6 9.3c1-.8 2.1-1.2 3.4-1.2s2.4.4 3.2 1.2c1 1 1.5 2.1 1.5 3.4s-.5 2.4-1.5 3.2c-.8 1-1.9 1.5-3.2 1.5s-2.5-.5-3.4-1.5q-1.2-1.2-1.2-3v-.2c0-1.3.4-2.4 1.2-3.4m13.1 0c1-.8 2.1-1.2 3.4-1.2s2.4.4 3.2 1.2c1 1 1.5 2.1 1.5 3.4s-.5 2.4-1.5 3.2c-.8 1-1.9 1.5-3.2 1.5s-2.5-.5-3.4-1.5q-1.2-1.2-1.2-3v-.2c0-1.3.4-2.4 1.2-3.4m18.4-5.6v-.2c0-1.3.4-2.5 1.2-3.4 1-.8 2.1-1.2 3.4-1.2s2.4.4 3.2 1.2c1 1 1.5 2.1 1.5 3.4s-.5 2.4-1.5 3.2c-.8 1-1.9 1.5-3.2 1.5s-2.5-.5-3.4-1.5q-1.2-1.35-1.2-3m-13-.3c0-1.3.4-2.5 1.2-3.4 1-.8 2.1-1.2 3.4-1.2s2.4.4 3.2 1.2c1 1 1.5 2.1 1.5 3.4s-.5 2.4-1.5 3.2c-.8 1-1.9 1.5-3.2 1.5s-2.5-.5-3.4-1.5q-1.2-1.2-1.2-3zm7.9 12.6q-1.2-1.2-1.2-3v-.2c0-1.3.4-2.5 1.2-3.4 1-.8 2.1-1.2 3.4-1.2s2.4.4 3.2 1.2c1 1 1.5 2.1 1.5 3.4s-.5 2.4-1.5 3.2c-.8 1-1.9 1.5-3.2 1.5s-2.4-.6-3.4-1.5"/><path d="M173.2 429.6H431V209.9h-3.4c-4.8-.7-8.9-2.8-12.5-6.4-4.4-4.4-6.6-9.8-6.6-16q0-9.6 6.6-16.2c4.4-4.3 9.8-6.4 16-6.4V67.5H68.4v99.9c5.5.4 10.3 2.5 14.3 6.4q6.6 6.6 6.6 16.2c0 6.2-2.2 11.6-6.6 16-3.6 3.6-7.8 5.7-12.5 6.4m-1.8 0v217.2h104.8m-40.1-314.9h231.7c13.1 0 19.7 6.6 19.7 19.7v231.7c0 7.4-2.1 12.8-6.3 16-3.3 2.5-7.7 3.7-13.4 3.7H133.1c-13.1 0-19.7-6.6-19.7-19.7V134.4c0-13.1 6.6-19.7 19.7-19.7" style="fill:none;stroke:#000;stroke-linecap:round;stroke-linejoin:round"/></svg>