<?xml version="1.0" encoding="utf-8"?>
<!-- Generator: Adobe Illustrator 21.1.0, SVG Export Plug-In . SVG Version: 6.00 Build 0)  -->
<svg version="1.1" id="Layer_1" xmlns="http://www.w3.org/2000/svg" xmlns:xlink="http://www.w3.org/1999/xlink" x="0px" y="0px"
	 viewBox="0 0 661.9 871.1" style="enable-background:new 0 0 661.9 871.1;" xml:space="preserve">
<style type="text/css">
	.st0{display:none;}
	.st1{display:inline;}
	.st2{fill:#303F9F;}
	.st3{fill:#3F51B5;}
	.st4{fill:#448AFF;}
	.st5{fill:#FF5722;}
</style>
<g>
	<g class="st0">
		<path class="st1" d="M431.3,357.4c-9.9,35-37.4,62.5-72.4,72.4v232C520.5,648.4,649.2,519.2,662,357.4H431.3z"/>
	</g>
	<g>
		<path class="st2" d="M229.2,357.4H0C12.8,519.7,142.3,649.2,304.6,662V430.7C268.2,421.5,239.4,393.4,229.2,357.4z"/>
	</g>
	<g>
		<path class="st3" d="M304.6,226.9V0C142.8,12.8,13.6,141.5,0.1,303.1h228.3C237.8,265.7,267.2,236.3,304.6,226.9z"/>
	</g>
	<g>
		<path class="st4" d="M432.1,303.1h229.7C648.5,142,520,13.5,358.9,0.1v227.6C394.9,237.9,423,266.7,432.1,303.1z"/>
	</g>
</g>
<g>
	
		<rect x="425" y="360.4" transform="matrix(0.7071 -0.7071 0.7071 0.7071 -201.4142 494.5681)" class="st5" width="142.5" height="260.1"/>
</g>
<g>
	<path class="st5" d="M187.4,765.4c0-20.6,10.8-32.4,30.7-32.4c19.9,0,30.7,11.8,30.7,32.4v66.9c0,7.2-1.3,13.2-3.9,18
		c0.9,2.4,2.4,2.8,5.7,2.8h1.8v18h-2.8c-9,0-14.7-3.3-17.5-8.8c-4,1.5-8.8,2.4-14.2,2.4c-19.9,0-30.7-11.8-30.7-32.4V765.4z
		 M207.6,833.6c0,9.2,4,12.7,10.5,12.7c6.4,0,10.5-3.5,10.5-12.7v-69.5c0-9.2-4-12.7-10.5-12.7c-6.4,0-10.5,3.5-10.5,12.7V833.6z"/>
	<path class="st5" d="M260.8,821.4l36.8-87h22.1v87h9.6v18.4h-9.6v23.3h-19.9v-23.3h-39V821.4z M299.7,821.4v-48.4l-20.4,48.4H299.7
		z"/>
	<path class="st2" d="M340.4,765.4c0-20.6,10.8-32.4,30.7-32.4c19.9,0,30.7,11.8,30.7,32.4v66.9c0,20.6-10.8,32.4-30.7,32.4
		c-19.9,0-30.7-11.8-30.7-32.4V765.4z M360.6,833.6c0,9.2,4,12.7,10.5,12.7c6.4,0,10.5-3.5,10.5-12.7v-69.5c0-9.2-4-12.7-10.5-12.7
		c-6.4,0-10.5,3.5-10.5,12.7V833.6z"/>
	<path class="st2" d="M445.7,733c19.7,0,29.8,11.8,29.8,32.4v4h-19.1v-5.3c0-9.2-3.7-12.7-10.1-12.7c-6.4,0-10.1,3.5-10.1,12.7
		c0,26.5,39.5,31.4,39.5,68.2c0,20.6-10.3,32.4-30.2,32.4c-19.9,0-30.2-11.8-30.2-32.4v-7.9h19.1v9.2c0,9.2,4,12.5,10.5,12.5
		s10.5-3.3,10.5-12.5c0-26.5-39.5-31.4-39.5-68.2C415.9,744.8,426,733,445.7,733z"/>
</g>
</svg>
