<svg xmlns="http://www.w3.org/2000/svg" xml:space="preserve" id="Layer_1" x="0" y="0" version="1.1" viewBox="0 0 1884.1 662"><style>.st2{fill:#303f9f}.st5{fill:#ff5722}</style><path d="M229.2 357.4H0C12.8 519.7 142.3 649.2 304.6 662V430.7c-36.4-9.2-65.2-37.3-75.4-73.3" class="st2"/><path d="M304.6 226.9V0C142.8 12.8 13.6 141.5.1 303.1h228.3c9.4-37.4 38.8-66.8 76.2-76.2" style="fill:#3f51b5"/><path d="M432.1 303.1h229.7C648.5 142 520 13.5 358.9.1v227.6c36 10.2 64.1 39 73.2 75.4" style="fill:#448aff"/><path d="m353.901 448.9 100.762-100.762L638.58 532.055 537.818 632.816zM823.6 203.6c0-75.8 39.7-119.2 112.9-119.2s112.9 43.4 112.9 119.2v246.1c0 26.5-4.8 48.6-14.3 66.2 3.3 8.8 8.8 10.3 21 10.3h6.6v66.2h-10.3c-33.1 0-54.1-12.1-64.4-32.4-14.7 5.5-32.4 8.8-52.2 8.8-73.2 0-112.9-43.4-112.9-119.2v-246zm74.3 250.9c0 33.8 14.7 46.7 38.6 46.7 23.5 0 38.6-12.9 38.6-46.7V198.8c0-33.8-14.7-46.7-38.6-46.7-23.5 0-38.6 12.9-38.6 46.7zM1093.6 409.6l135.4-320h81.3v320h35.3v67.7h-35.3V563h-73.2v-85.7h-143.5zm143.1 0v-178l-75 178z" class="st5"/><path d="M1386.4 203.6c0-75.8 39.7-119.2 112.9-119.2s112.9 43.4 112.9 119.2v246.1c0 75.8-39.7 119.2-112.9 119.2s-112.9-43.4-112.9-119.2zm74.4 250.9c0 33.8 14.7 46.7 38.6 46.7 23.5 0 38.6-12.9 38.6-46.7V198.8c0-33.8-14.7-46.7-38.6-46.7-23.5 0-38.6 12.9-38.6 46.7zM1773.8 84.4c72.5 0 109.6 43.4 109.6 119.2v14.7h-70.3v-19.5c0-33.8-13.6-46.7-37.2-46.7s-37.2 12.9-37.2 46.7c0 97.5 145.3 115.5 145.3 250.9 0 75.8-37.9 119.2-111.1 119.2s-111.1-43.4-111.1-119.2v-29.1h70.3v33.8c0 33.8 14.7 46 38.6 46s38.6-12.1 38.6-46c0-97.5-145.3-115.5-145.3-250.9.2-75.7 37.3-119.1 109.8-119.1" class="st2"/></svg>