<?xml version="1.0" encoding="utf-8"?>
<!-- Generator: Adobe Illustrator 23.0.2, SVG Export Plug-In . SVG Version: 6.00 Build 0)  -->
<svg version="1.1" id="Layer_1" xmlns="http://www.w3.org/2000/svg" xmlns:xlink="http://www.w3.org/1999/xlink" x="0px" y="0px"
	 viewBox="0 0 1884.1 662" style="enable-background:new 0 0 1884.1 662;" xml:space="preserve">
<style type="text/css">
	.st0{display:none;}
	.st1{display:inline;}
	.st2{fill:#303F9F;}
	.st3{fill:#3F51B5;}
	.st4{fill:#448AFF;}
	.st5{fill:#FF5722;}
</style>
<g>
	<g class="st0">
		<path class="st1" d="M431.3,357.4c-9.9,35-37.4,62.5-72.4,72.4v232C520.5,648.4,649.2,519.2,662,357.4H431.3z"/>
	</g>
	<g>
		<path class="st2" d="M229.2,357.4H0C12.8,519.7,142.3,649.2,304.6,662V430.7C268.2,421.5,239.4,393.4,229.2,357.4z"/>
	</g>
	<g>
		<path class="st3" d="M304.6,226.9V0C142.8,12.8,13.6,141.5,0.1,303.1h228.3C237.8,265.7,267.2,236.3,304.6,226.9z"/>
	</g>
	<g>
		<path class="st4" d="M432.1,303.1h229.7C648.5,142,520,13.5,358.9,0.1v227.6C394.9,237.9,423,266.7,432.1,303.1z"/>
	</g>
</g>
<g>
	
		<rect x="425" y="360.4" transform="matrix(0.7071 -0.7071 0.7071 0.7071 -201.455 494.5783)" class="st5" width="142.5" height="260.1"/>
</g>
<g>
	<path class="st5" d="M823.6,203.6c0-75.8,39.7-119.2,112.9-119.2s112.9,43.4,112.9,119.2v246.1c0,26.5-4.8,48.6-14.3,66.2
		c3.3,8.8,8.8,10.3,21,10.3h6.6v66.2h-10.3c-33.1,0-54.1-12.1-64.4-32.4c-14.7,5.5-32.4,8.8-52.2,8.8
		c-73.2,0-112.9-43.4-112.9-119.2V203.6H823.6z M897.9,454.5c0,33.8,14.7,46.7,38.6,46.7c23.5,0,38.6-12.9,38.6-46.7V198.8
		c0-33.8-14.7-46.7-38.6-46.7c-23.5,0-38.6,12.9-38.6,46.7V454.5z"/>
	<path class="st5" d="M1093.6,409.6l135.4-320h81.3v320h35.3v67.7h-35.3V563h-73.2v-85.7h-143.5V409.6z M1236.7,409.6v-178l-75,178
		H1236.7z"/>
	<path class="st2" d="M1386.4,203.6c0-75.8,39.7-119.2,112.9-119.2c73.2,0,112.9,43.4,112.9,119.2v246.1
		c0,75.8-39.7,119.2-112.9,119.2s-112.9-43.4-112.9-119.2V203.6z M1460.8,454.5c0,33.8,14.7,46.7,38.6,46.7
		c23.5,0,38.6-12.9,38.6-46.7V198.8c0-33.8-14.7-46.7-38.6-46.7c-23.5,0-38.6,12.9-38.6,46.7V454.5z"/>
	<path class="st2" d="M1773.8,84.4c72.5,0,109.6,43.4,109.6,119.2v14.7h-70.3v-19.5c0-33.8-13.6-46.7-37.2-46.7
		s-37.2,12.9-37.2,46.7c0,97.5,145.3,115.5,145.3,250.9c0,75.8-37.9,119.2-111.1,119.2c-73.2,0-111.1-43.4-111.1-119.2v-29.1h70.3
		v33.8c0,33.8,14.7,46,38.6,46c23.9,0,38.6-12.1,38.6-46c0-97.5-145.3-115.5-145.3-250.9C1664.2,127.8,1701.3,84.4,1773.8,84.4z"/>
</g>
</svg>
