<svg xmlns="http://www.w3.org/2000/svg" xml:space="preserve" id="Layer_1" x="0" y="0" version="1.1" viewBox="0 0 661.9 871.1"><style>.st2{fill:#303f9f}.st5{fill:#ff5722}</style><path d="M229.2 357.4H0C12.8 519.7 142.3 649.2 304.6 662V430.7c-36.4-9.2-65.2-37.3-75.4-73.3" class="st2"/><path d="M304.6 226.9V0C142.8 12.8 13.6 141.5.1 303.1h228.3c9.4-37.4 38.8-66.8 76.2-76.2" style="fill:#3f51b5"/><path d="M432.1 303.1h229.7C648.5 142 520 13.5 358.9.1v227.6c36 10.2 64.1 39 73.2 75.4" style="fill:#448aff"/><path d="m353.942 448.89 100.762-100.762L638.62 532.044 537.859 632.806zM187.4 765.4c0-20.6 10.8-32.4 30.7-32.4s30.7 11.8 30.7 32.4v66.9q0 10.8-3.9 18c.9 2.4 2.4 2.8 5.7 2.8h1.8v18h-2.8c-9 0-14.7-3.3-17.5-8.8-4 1.5-8.8 2.4-14.2 2.4-19.9 0-30.7-11.8-30.7-32.4v-66.9zm20.2 68.2c0 9.2 4 12.7 10.5 12.7 6.4 0 10.5-3.5 10.5-12.7v-69.5c0-9.2-4-12.7-10.5-12.7-6.4 0-10.5 3.5-10.5 12.7zM260.8 821.4l36.8-87h22.1v87h9.6v18.4h-9.6v23.3h-19.9v-23.3h-39zm38.9 0V773l-20.4 48.4z" class="st5"/><path d="M340.4 765.4c0-20.6 10.8-32.4 30.7-32.4s30.7 11.8 30.7 32.4v66.9c0 20.6-10.8 32.4-30.7 32.4s-30.7-11.8-30.7-32.4zm20.2 68.2c0 9.2 4 12.7 10.5 12.7 6.4 0 10.5-3.5 10.5-12.7v-69.5c0-9.2-4-12.7-10.5-12.7-6.4 0-10.5 3.5-10.5 12.7zM445.7 733c19.7 0 29.8 11.8 29.8 32.4v4h-19.1v-5.3c0-9.2-3.7-12.7-10.1-12.7s-10.1 3.5-10.1 12.7c0 26.5 39.5 31.4 39.5 68.2 0 20.6-10.3 32.4-30.2 32.4s-30.2-11.8-30.2-32.4v-7.9h19.1v9.2c0 9.2 4 12.5 10.5 12.5s10.5-3.3 10.5-12.5c0-26.5-39.5-31.4-39.5-68.2 0-20.6 10.1-32.4 29.8-32.4" class="st2"/></svg>