<svg xmlns="http://www.w3.org/2000/svg" xml:space="preserve" viewBox="0 0 500 500"><path d="M179.9 64.2h2.4c2.7.4 5.1 1.7 7.6 2.7 1 .5 2 .1 3-.1 2.1-.5 4.4-.7 6.4.1 1.9.6 3.5 2 5.3 2.6 1 .2 2-.1 3-.1 2.6-.3 5.3.1 7.6 1.5s4 3.5 5.9 5.3c1.7-.1 3.3-.1 5-.1 6.6 3.9 11.9 9.9 15.8 16.4 2.8 4.8 5.1 10 6.7 15.3 3.7-11.9 10.2-23.6 20.8-30.7 1.9-1.6 4.5-.9 6.7-.9 2.7-2.7 5.3-5.9 9.3-6.7 2.3-.6 4.7.1 7 0 2.5-1 4.7-3 7.5-3.1 2.2-.3 4.3.6 6.4.7 2.8-.8 5.3-2.4 8.3-2.9h2.3c2.1.3 3.9 1.3 5.6 2.5 2.9-1 5.8-1.9 8.9-1.6 2.7.1 5.2 1.5 7.3 3.1 2.8-.2 5.7-.5 8.4.6 1.5.6 2.6 1.7 3.7 2.8 3.2-.2 6.6-.3 9.7.5 3.1.7 5.8 2.5 7.7 5 2.9-.2 6-.2 8.7 1.1 2.5 1.1 4.5 3.5 4.9 6.2.6 2.8-.3 5.7-1.5 8.2 1.3 2.1 2.8 4.3 2.8 6.9.1 3.1-1.8 5.8-3.5 8.2.5 1.6 1.1 3.4.8 5.1-.5 3.5-2.8 6.3-5 9 .3 2.3.4 4.7-.5 6.9-1 2.6-3.2 4.6-5.4 6.3 0 2-.2 4-1.1 5.8-1.8 3.8-5.4 6.2-8.8 8.5-.6 2.3-1.3 4.7-3 6.5-2.4 2.7-6 4-9.4 5-.6 1.9-1.4 3.8-2.8 5.2-2.7 2.6-6.4 3.4-9.9 4.3 7.1 4.1 14.1 8.8 19.6 15 4.8 5.3 8.3 11.6 10.6 18.3 2.4 7.2 3.3 14.8 3.4 22.4-.2 2.5 1.4 4.6 2.7 6.5 2.1 1.7 4.5 3.1 6.5 5.1 14.9 13.7 22.2 35.6 17.4 55.4-2 8.3-6.1 16.1-11.6 22.6-.9 1.1-2.1 2.1-2.3 3.6-.8 3.6-1.7 7.2-2.8 10.7-1.5 4.7-3.5 9.3-4.9 14-1 6.1-2.6 12.1-5.2 17.7-6 12.7-16.4 23.3-28.9 29.8-2.4 1.3-5.2 1.7-7.3 3.5-10.6 8-22 14.9-34.6 19.3-1.9.5-3.1 2.1-4.4 3.4-6.9 6.4-14.9 11.6-23.8 14.6-9.8 3.3-20.4 3.9-30.6 2.4-13.5-2-25.9-9.1-35.4-18.7-1.2-1.3-2.9-1.8-4.5-2.4-11.5-4.3-22.1-10.8-32-18.1-1.1-.8-2.2-1.7-3.5-2.1-6.3-2.2-11.9-6-16.9-10.3-10-8.5-17.5-20.1-20.5-32.9-.8-2.8-.8-5.7-1.9-8.4-2.7-7.3-5.5-14.5-7-22.2-.2-1.7-1.6-2.9-2.6-4.2-4.9-5.9-8.6-12.8-10.8-20.2-2.9-9.8-2.7-20.5.1-30.3 3.2-11.1 9.6-21.5 18.5-28.9 1.5-1.3 3.2-2.2 4.7-3.5 1-1.4 1.9-2.9 2.5-4.4.3-1.5.2-3.1.2-4.6.3-8.6 1.9-17.2 5.4-25.1 2.5-5.7 6.2-10.9 10.6-15.3 5.1-5.1 11.2-9.2 17.4-12.8-3.4-.9-7.2-1.7-9.8-4.3-1.5-1.4-2.3-3.3-2.9-5.2-2.8-.8-5.7-1.8-8-3.7-2.5-1.9-3.7-4.8-4.4-7.8-2.3-1.5-4.6-3.1-6.5-5.1-2.3-2.4-3.6-5.7-3.4-9.1-2.1-1.6-4.2-3.4-5.3-5.9-1.1-2.2-1-4.8-.6-7.2-1.9-2.2-3.7-4.5-4.6-7.3-.8-2.2-.5-4.6.4-6.8-1.7-2.4-3.6-5.1-3.5-8.2 0-2.6 1.5-4.8 2.8-6.9-1.9-3.6-2.6-8.4 0-11.8 2.8-3.6 7.8-4 12-3.7 1.3-1.5 2.7-3 4.5-3.8 4-2 8.6-2.1 12.9-1.7.9-.9 1.9-1.9 3.1-2.6 2.8-1.4 6-1.1 8.9-.9 1.7-1.3 3.6-2.5 5.7-2.9 3.5-.8 7.1.2 10.5 1.4 1.8-1.2 3.5-2.2 5.5-2.5m1.9 9.5c1 1.4 2.5 2.6 2.8 4.4.2 1.1-.6 1.9-1.1 2.8-5-3.4-10.8-5.5-16.8-6.5 1.4 1.4 3.1 2.5 4.2 4.2.7.9 0 1.8-.3 2.7-5.2-1.9-10.6-3.2-16-4 1.3 1.2 2.8 2.2 3.5 3.8.5.9-.1 1.8-.5 2.6-6.2-1.9-12.9-3.6-19.4-2l4.5 4.5c-5.8.7-11.6.3-17.4.4 3 4 5.7 8.5 6.7 13.5-2.5.4-5 0-7.5-.2 1.2 2.3 2.7 4.4 4.6 6.2 2 2 4.6 3.4 6.2 5.8-2.5 1.6-5.6.9-8.2.2 2.7 5.2 7.7 8.4 11.7 12.5-2.2 1.1-4.7.8-7 .6 4 4.3 8.8 7.8 13.7 10.9-2.3 1.1-4.9.9-7.3 1 4.9 4.6 11.1 7.2 17 10.3-2.1 1.5-4.7 1.7-7.3 1.6 5.2 3.8 11.7 5.1 17.7 7.2-1.2 1.8-3.1 2.6-5.1 3.1 2.7 1.2 5.5 2 8.5 2.3 3.7.5 7.5.2 11.1 1.4-.7 2.2-2.8 3.4-4.8 4.4 7.5.3 15.1-.2 22.4-2 5.4-1.4 10.7-3.5 15.1-6.9 4.8-3.5 8.2-8.8 9.7-14.5-8.9-9.6-19.6-17.2-30.5-24.3-12.1-7.7-24.7-14.5-37.5-21.1 26.5 8.8 52.2 21.1 74 38.8 4.9-2.3 9.3-6 11.3-11.1 2.5-6.4 1.1-13.6-1.4-19.8-3.2-7.9-8.2-15-14.2-21-.4 1.9-.9 3.9-2.1 5.6-4-4.3-7.6-9-12.2-12.6.1 1.4.4 2.9.1 4.3-.2 1.1-1.1 1.9-1.9 2.6-3-3.9-6.8-7.1-11-9.6.5 1.3 1.2 2.6.8 4-.3 1.1-1.2 2-1.9 2.9-4.4-3.9-9-7.2-14.2-9m120.5 8.8c-.8-1-1.8-2-1.9-3.3-.2-1.3.4-2.4.9-3.6-4.2 2.5-8.1 5.7-11.1 9.6-.8-.7-1.7-1.5-1.9-2.6-.3-1.4 0-2.9.1-4.3-4.6 3.7-8.2 8.3-12.2 12.6-1.2-1.6-1.6-3.6-2-5.6-6.1 6-11 13.2-14.3 21-2.5 6.2-3.9 13.3-1.4 19.7 1.9 5.1 6.4 8.8 11.2 11.1 21.8-17.7 47.4-30 73.9-38.7-12.3 6.4-24.6 13-36.4 20.4-11.3 7.2-22.4 15-31.5 24.9 1 3.6 2.6 7.1 5 10 4.1 5.1 10 8.3 16.1 10.3 8.4 2.7 17.3 3.4 26.1 3.1-1.9-1-3.8-2.2-4.8-4.2 2.4-1.2 5.1-1.1 7.7-1.3 4.1-.3 8.3-.8 12-2.6-2-.4-4-1.3-5.1-3.1 6-2 12.5-3.3 17.7-7.1-2.5.1-5.1 0-7.2-1.6 5.8-3.1 12.1-5.7 17-10.3-2.5-.1-5.1.1-7.3-1 4.9-3.2 9.6-6.7 13.7-10.9-2.4.2-4.8.4-7.1-.6 4-4.1 9-7.4 11.7-12.5-2.7.8-5.7 1.5-8.2-.2 1.6-2.4 4.1-3.8 6.1-5.7 1.9-1.7 3.5-3.9 4.7-6.2-2.5.2-5.1.6-7.6.2 1.1-5 3.7-9.4 6.8-13.4-5.8-.1-11.6.2-17.4-.4 1.5-1.6 3-3 4.5-4.6-6.4-1.6-13.1 0-19.2 2-.4-.7-1-1.4-.8-2.2.6-1.8 2.2-3 3.6-4.2-5.5.7-10.9 2.1-16.1 4-.3-.8-.9-1.8-.3-2.6 1.1-1.7 2.8-2.8 4.2-4.2-6 1-11.7 3.2-16.8 6.5-.5-.9-1.3-1.8-1.1-2.9.3-1.7 1.7-3 2.8-4.3-5.4 1.8-10 5.1-14.1 8.8m-58 86.1c-9.2 1-18.1 4.7-25.3 10.5-3.2 2.6-6.2 5.6-7.8 9.4-1.6 3.6-.1 7.6 2 10.6 3.8 5.1 9.6 8.3 15.5 10.5 10.3 3.6 21.5 4.1 32.3 2.8 7.1-1 14.4-2.9 20.3-7.1 3.5-2.5 6.6-6.3 6.9-10.8.3-4.4-2.1-8.4-4.9-11.5-4.6-4.9-10.5-8.4-16.7-10.9-7-3-14.7-4.2-22.3-3.5m-58.5 7.6c-11.7 1.3-23.2 6.6-30.8 15.7-8 9.3-11.3 22-10.7 34.1.3 2.5 3.4 1.9 5 1.2 4-1.5 7.6-3.8 11.2-6.1 11.2-7.6 21.5-16.3 31.3-25.7 4-4 8.1-8.1 11.3-12.8.9-1.4 1.9-2.9 2-4.6 0-1.1-1.2-1.3-2-1.4-5.8-.9-11.6-1.1-17.3-.4m114.7.8c-2.1.3-4.2.3-6.2 1-1.3 1-.2 2.9.3 4 3.1 5.1 7.3 9.3 11.5 13.6 7.1 7 14.7 13.6 22.6 19.7 5.4 4.1 11 8.2 17.1 11.4 2.1 1 4.3 2.2 6.7 2.2 1.1 0 2-.9 2-2 .4-10.9-2.2-22.3-8.7-31.2-4.7-6.6-11.4-11.7-18.9-14.8-8.3-3.6-17.5-4.6-26.4-3.9m-14.7 38c-9.9 1.6-18.9 8-23.6 16.9-4.1 7.5-5.3 16.3-4.2 24.6 1.2 9.1 5.1 17.7 10.8 24.9 8 10 19.8 17.1 32.7 18.2 7.5.6 15.2-1.1 21.5-5.1 5.9-3.7 10.5-9.4 13.1-15.8 3.4-8.5 3.6-18.1 1.3-26.8-3.8-14.3-14-26.8-27.4-33.1-7.4-3.7-16-5.2-24.2-3.8m-85.8 2.1c-17.2 3-31.5 16.3-37.3 32.5-3.3 9.2-3.9 19.5-.8 28.9 2.3 6.8 6.7 13 12.6 17.2 5.5 3.9 12.2 5.9 18.9 6.1 7.9.2 15.8-2.2 22.7-6.2 12.7-7.5 22-20.7 24.5-35.2 1.5-8.7.5-18-3.6-25.8-3.4-6.6-9.1-12.1-16-15.1-6.6-2.9-14-3.6-21-2.4m156 22.7c-2.2.8-3.5 3.1-4.3 5.2-1.5 4.1-1.9 8.5-2 12.8-.2 9.7 1 19.3 3.1 28.7 1.4 5.9 3.1 11.8 5.9 17.3 1.3 2.4 2.8 4.9 5.1 6.5 1.5 1.1 3.8 1.4 5.2.1 3.9-3.3 6.8-7.6 8.9-12.2 5.9-12.8 5.8-28.4-.9-40.9-3.9-7.3-10-13.3-17.2-17.4-1.1-.5-2.6-.5-3.8-.1m-218.1 1c-8.5 4.6-15.6 12.1-19.4 21.1-4.4 10.4-4.6 22.4-1 33.1 2.2 6.3 5.7 12.3 10.8 16.7 1.6 1.3 3.9.8 5.4-.4 2.6-2.1 4.3-5.2 5.7-8.2 3-6.8 4.8-14.1 6.2-21.4 1.5-8.8 2.4-17.8 1.7-26.8-.4-4.1-1-8.4-3.4-11.8-1.3-2-3.8-3.1-6-2.3m105.2 53.6c-13.7 1.7-26.7 10.1-32.8 22.7-4.3 8.7-4.9 19.2-1.5 28.4 2.5 6.9 7.1 12.9 12.8 17.3 12.4 9.7 30 12 44.6 6.2 8.2-3.2 15.5-8.9 20.3-16.3 7.3-11.1 7.7-26.2 1-37.6-4-7-10.2-12.7-17.4-16.2-8.3-4.3-17.8-5.7-27-4.5m98.7 14.4c-5.3.8-10.1 3.5-14.5 6.6-6.2 4.4-11.6 9.7-16.7 15.3-4.8 5.5-8.5 12.1-11.2 18.9-2.6 6.6-4.4 13.6-4.4 20.8.1 4.4 1 9.1 4.1 12.4 2.3 1.9 5.2 2.9 8.1 3.5 7.3 1.3 14.9-.1 21.6-3.1 10.4-4.6 18.7-12.8 25-22.1 4.9-7.8 6.7-17.3 6.4-26.4-.3-7-1.6-14.2-5.2-20.3-2.4-4.7-8.3-6.3-13.2-5.6m-194 6.2c-2.3.6-4.6 1.4-6.2 3.2-2.7 3-3.9 6.9-4.5 10.8-1.2 8.7.6 17.6 3.8 25.6 1.6 3.7 3.2 7.5 5.7 10.6 5.2 6.8 11.9 12.6 19.6 16.3 6.9 3.3 14.9 5.1 22.5 3.6 2.4-.6 5-1.2 6.9-3 3.3-3.3 4.2-8.2 4.3-12.7 0-8.7-2.8-17.2-6.8-24.9-2.7-5.1-6.3-9.7-10.4-13.7-5.9-5.7-12.5-10.9-20.1-14-4.6-1.7-9.8-2.8-14.8-1.8m95.3 69.5c-9.1.9-18.2 2.7-26.5 6.5-3.3 1.6-6.9 3.6-8.5 7.1-1.1 2.5.3 5 1.8 7 3.6 4.6 8.4 8.2 13.4 11.2 7.9 4.6 16.9 7.6 26 7.4 8.9.1 17.5-2.9 25.1-7.4 5.2-3.1 10-6.9 13.7-11.7 1.5-2 2.9-4.3 2.8-6.9-.3-2.8-2.7-4.7-4.9-6-5.5-3.3-11.9-4.9-18.1-6-8.1-1.7-16.5-1.7-24.8-1.2" style="fill:#060707"/></svg>