<?xml version="1.0" encoding="utf-8"?>
<!-- Generator: Adobe Illustrator 23.0.2, SVG Export Plug-In . SVG Version: 6.00 Build 0)  -->
<svg version="1.1" id="Layer_1" xmlns="http://www.w3.org/2000/svg" xmlns:xlink="http://www.w3.org/1999/xlink" x="0px" y="0px"
	 viewBox="0 0 500 500" style="enable-background:new 0 0 500 500;" xml:space="preserve">
<style type="text/css">
	.st0{fill:#060707;}
</style>
<g>
	<path class="st0" d="M179.9,64.2h2.4c2.7,0.4,5.1,1.7,7.6,2.7c1,0.5,2,0.1,3-0.1c2.1-0.5,4.4-0.7,6.4,0.1c1.9,0.6,3.5,2,5.3,2.6
		c1,0.2,2-0.1,3-0.1c2.6-0.3,5.3,0.1,7.6,1.5c2.3,1.4,4,3.5,5.9,5.3c1.7-0.1,3.3-0.1,5-0.1c6.6,3.9,11.9,9.9,15.8,16.4
		c2.8,4.8,5.1,10,6.7,15.3c3.7-11.9,10.2-23.6,20.8-30.7c1.9-1.6,4.5-0.9,6.7-0.9c2.7-2.7,5.3-5.9,9.3-6.7c2.3-0.6,4.7,0.1,7,0
		c2.5-1,4.7-3,7.5-3.1c2.2-0.3,4.3,0.6,6.4,0.7c2.8-0.8,5.3-2.4,8.3-2.9h2.3c2.1,0.3,3.9,1.3,5.6,2.5c2.9-1,5.8-1.9,8.9-1.6
		c2.7,0.1,5.2,1.5,7.3,3.1c2.8-0.2,5.7-0.5,8.4,0.6c1.5,0.6,2.6,1.7,3.7,2.8c3.2-0.2,6.6-0.3,9.7,0.5c3.1,0.7,5.8,2.5,7.7,5
		c2.9-0.2,6-0.2,8.7,1.1c2.5,1.1,4.5,3.5,4.9,6.2c0.6,2.8-0.3,5.7-1.5,8.2c1.3,2.1,2.8,4.3,2.8,6.9c0.1,3.1-1.8,5.8-3.5,8.2
		c0.5,1.6,1.1,3.4,0.8,5.1c-0.5,3.5-2.8,6.3-5,9c0.3,2.3,0.4,4.7-0.5,6.9c-1,2.6-3.2,4.6-5.4,6.3c0,2-0.2,4-1.1,5.8
		c-1.8,3.8-5.4,6.2-8.8,8.5c-0.6,2.3-1.3,4.7-3,6.5c-2.4,2.7-6,4-9.4,5c-0.6,1.9-1.4,3.8-2.8,5.2c-2.7,2.6-6.4,3.4-9.9,4.3
		c7.1,4.1,14.1,8.8,19.6,15c4.8,5.3,8.3,11.6,10.6,18.3c2.4,7.2,3.3,14.8,3.4,22.4c-0.2,2.5,1.4,4.6,2.7,6.5
		c2.1,1.7,4.5,3.1,6.5,5.1c14.9,13.7,22.2,35.6,17.4,55.4c-2,8.3-6.1,16.1-11.6,22.6c-0.9,1.1-2.1,2.1-2.3,3.6
		c-0.8,3.6-1.7,7.2-2.8,10.7c-1.5,4.7-3.5,9.3-4.9,14c-1,6.1-2.6,12.1-5.2,17.7c-6,12.7-16.4,23.3-28.9,29.8
		c-2.4,1.3-5.2,1.7-7.3,3.5c-10.6,8-22,14.9-34.6,19.3c-1.9,0.5-3.1,2.1-4.4,3.4c-6.9,6.4-14.9,11.6-23.8,14.6
		c-9.8,3.3-20.4,3.9-30.6,2.4c-13.5-2-25.9-9.1-35.4-18.7c-1.2-1.3-2.9-1.8-4.5-2.4c-11.5-4.3-22.1-10.8-32-18.1
		c-1.1-0.8-2.2-1.7-3.5-2.1c-6.3-2.2-11.9-6-16.9-10.3c-10-8.5-17.5-20.1-20.5-32.9c-0.8-2.8-0.8-5.7-1.9-8.4
		c-2.7-7.3-5.5-14.5-7-22.2c-0.2-1.7-1.6-2.9-2.6-4.2c-4.9-5.9-8.6-12.8-10.8-20.2c-2.9-9.8-2.7-20.5,0.1-30.3
		c3.2-11.1,9.6-21.5,18.5-28.9c1.5-1.3,3.2-2.2,4.7-3.5c1-1.4,1.9-2.9,2.5-4.4c0.3-1.5,0.2-3.1,0.2-4.6c0.3-8.6,1.9-17.2,5.4-25.1
		c2.5-5.7,6.2-10.9,10.6-15.3c5.1-5.1,11.2-9.2,17.4-12.8c-3.4-0.9-7.2-1.7-9.8-4.3c-1.5-1.4-2.3-3.3-2.9-5.2
		c-2.8-0.8-5.7-1.8-8-3.7c-2.5-1.9-3.7-4.8-4.4-7.8c-2.3-1.5-4.6-3.1-6.5-5.1c-2.3-2.4-3.6-5.7-3.4-9.1c-2.1-1.6-4.2-3.4-5.3-5.9
		c-1.1-2.2-1-4.8-0.6-7.2c-1.9-2.2-3.7-4.5-4.6-7.3c-0.8-2.2-0.5-4.6,0.4-6.8c-1.7-2.4-3.6-5.1-3.5-8.2c0-2.6,1.5-4.8,2.8-6.9
		c-1.9-3.6-2.6-8.4,0-11.8c2.8-3.6,7.8-4,12-3.7c1.3-1.5,2.7-3,4.5-3.8c4-2,8.6-2.1,12.9-1.7c0.9-0.9,1.9-1.9,3.1-2.6
		c2.8-1.4,6-1.1,8.9-0.9c1.7-1.3,3.6-2.5,5.7-2.9c3.5-0.8,7.1,0.2,10.5,1.4C176.2,65.5,177.9,64.5,179.9,64.2 M181.8,73.7
		c1,1.4,2.5,2.6,2.8,4.4c0.2,1.1-0.6,1.9-1.1,2.8c-5-3.4-10.8-5.5-16.8-6.5c1.4,1.4,3.1,2.5,4.2,4.2c0.7,0.9,0,1.8-0.3,2.7
		c-5.2-1.9-10.6-3.2-16-4c1.3,1.2,2.8,2.2,3.5,3.8c0.5,0.9-0.1,1.8-0.5,2.6c-6.2-1.9-12.9-3.6-19.4-2c1.5,1.5,3,3,4.5,4.5
		c-5.8,0.7-11.6,0.3-17.4,0.4c3,4,5.7,8.5,6.7,13.5c-2.5,0.4-5,0-7.5-0.2c1.2,2.3,2.7,4.4,4.6,6.2c2,2,4.6,3.4,6.2,5.8
		c-2.5,1.6-5.6,0.9-8.2,0.2c2.7,5.2,7.7,8.4,11.7,12.5c-2.2,1.1-4.7,0.8-7,0.6c4,4.3,8.8,7.8,13.7,10.9c-2.3,1.1-4.9,0.9-7.3,1
		c4.9,4.6,11.1,7.2,17,10.3c-2.1,1.5-4.7,1.7-7.3,1.6c5.2,3.8,11.7,5.1,17.7,7.2c-1.2,1.8-3.1,2.6-5.1,3.1c2.7,1.2,5.5,2,8.5,2.3
		c3.7,0.5,7.5,0.2,11.1,1.4c-0.7,2.2-2.8,3.4-4.8,4.4c7.5,0.3,15.1-0.2,22.4-2c5.4-1.4,10.7-3.5,15.1-6.9c4.8-3.5,8.2-8.8,9.7-14.5
		c-8.9-9.6-19.6-17.2-30.5-24.3c-12.1-7.7-24.7-14.5-37.5-21.1c26.5,8.8,52.2,21.1,74,38.8c4.9-2.3,9.3-6,11.3-11.1
		c2.5-6.4,1.1-13.6-1.4-19.8c-3.2-7.9-8.2-15-14.2-21c-0.4,1.9-0.9,3.9-2.1,5.6c-4-4.3-7.6-9-12.2-12.6c0.1,1.4,0.4,2.9,0.1,4.3
		c-0.2,1.1-1.1,1.9-1.9,2.6c-3-3.9-6.8-7.1-11-9.6c0.5,1.3,1.2,2.6,0.8,4c-0.3,1.1-1.2,2-1.9,2.9C191.6,78.8,187,75.5,181.8,73.7
		 M302.3,82.5c-0.8-1-1.8-2-1.9-3.3c-0.2-1.3,0.4-2.4,0.9-3.6c-4.2,2.5-8.1,5.7-11.1,9.6c-0.8-0.7-1.7-1.5-1.9-2.6
		c-0.3-1.4,0-2.9,0.1-4.3c-4.6,3.7-8.2,8.3-12.2,12.6c-1.2-1.6-1.6-3.6-2-5.6c-6.1,6-11,13.2-14.3,21c-2.5,6.2-3.9,13.3-1.4,19.7
		c1.9,5.1,6.4,8.8,11.2,11.1c21.8-17.7,47.4-30,73.9-38.7c-12.3,6.4-24.6,13-36.4,20.4c-11.3,7.2-22.4,15-31.5,24.9
		c1,3.6,2.6,7.1,5,10c4.1,5.1,10,8.3,16.1,10.3c8.4,2.7,17.3,3.4,26.1,3.1c-1.9-1-3.8-2.2-4.8-4.2c2.4-1.2,5.1-1.1,7.7-1.3
		c4.1-0.3,8.3-0.8,12-2.6c-2-0.4-4-1.3-5.1-3.1c6-2,12.5-3.3,17.7-7.1c-2.5,0.1-5.1,0-7.2-1.6c5.8-3.1,12.1-5.7,17-10.3
		c-2.5-0.1-5.1,0.1-7.3-1c4.9-3.2,9.6-6.7,13.7-10.9c-2.4,0.2-4.8,0.4-7.1-0.6c4-4.1,9-7.4,11.7-12.5c-2.7,0.8-5.7,1.5-8.2-0.2
		c1.6-2.4,4.1-3.8,6.1-5.7c1.9-1.7,3.5-3.9,4.7-6.2c-2.5,0.2-5.1,0.6-7.6,0.2c1.1-5,3.7-9.4,6.8-13.4c-5.8-0.1-11.6,0.2-17.4-0.4
		c1.5-1.6,3-3,4.5-4.6c-6.4-1.6-13.1,0-19.2,2c-0.4-0.7-1-1.4-0.8-2.2c0.6-1.8,2.2-3,3.6-4.2c-5.5,0.7-10.9,2.1-16.1,4
		c-0.3-0.8-0.9-1.8-0.3-2.6c1.1-1.7,2.8-2.8,4.2-4.2c-6,1-11.7,3.2-16.8,6.5c-0.5-0.9-1.3-1.8-1.1-2.9c0.3-1.7,1.7-3,2.8-4.3
		C311,75.5,306.4,78.8,302.3,82.5 M244.3,168.6c-9.2,1-18.1,4.7-25.3,10.5c-3.2,2.6-6.2,5.6-7.8,9.4c-1.6,3.6-0.1,7.6,2,10.6
		c3.8,5.1,9.6,8.3,15.5,10.5c10.3,3.6,21.5,4.1,32.3,2.8c7.1-1,14.4-2.9,20.3-7.1c3.5-2.5,6.6-6.3,6.9-10.8
		c0.3-4.4-2.1-8.4-4.9-11.5c-4.6-4.9-10.5-8.4-16.7-10.9C259.6,169.1,251.9,167.9,244.3,168.6 M185.8,176.2
		c-11.7,1.3-23.2,6.6-30.8,15.7c-8,9.3-11.3,22-10.7,34.1c0.3,2.5,3.4,1.9,5,1.2c4-1.5,7.6-3.8,11.2-6.1
		c11.2-7.6,21.5-16.3,31.3-25.7c4-4,8.1-8.1,11.3-12.8c0.9-1.4,1.9-2.9,2-4.6c0-1.1-1.2-1.3-2-1.4
		C197.3,175.7,191.5,175.5,185.8,176.2 M300.5,177c-2.1,0.3-4.2,0.3-6.2,1c-1.3,1-0.2,2.9,0.3,4c3.1,5.1,7.3,9.3,11.5,13.6
		c7.1,7,14.7,13.6,22.6,19.7c5.4,4.1,11,8.2,17.1,11.4c2.1,1,4.3,2.2,6.7,2.2c1.1,0,2-0.9,2-2c0.4-10.9-2.2-22.3-8.7-31.2
		c-4.7-6.6-11.4-11.7-18.9-14.8C318.6,177.3,309.4,176.3,300.5,177 M285.8,215c-9.9,1.6-18.9,8-23.6,16.9
		c-4.1,7.5-5.3,16.3-4.2,24.6c1.2,9.1,5.1,17.7,10.8,24.9c8,10,19.8,17.1,32.7,18.2c7.5,0.6,15.2-1.1,21.5-5.1
		c5.9-3.7,10.5-9.4,13.1-15.8c3.4-8.5,3.6-18.1,1.3-26.8c-3.8-14.3-14-26.8-27.4-33.1C302.6,215.1,294,213.6,285.8,215 M200,217.1
		c-17.2,3-31.5,16.3-37.3,32.5c-3.3,9.2-3.9,19.5-0.8,28.9c2.3,6.8,6.7,13,12.6,17.2c5.5,3.9,12.2,5.9,18.9,6.1
		c7.9,0.2,15.8-2.2,22.7-6.2c12.7-7.5,22-20.7,24.5-35.2c1.5-8.7,0.5-18-3.6-25.8c-3.4-6.6-9.1-12.1-16-15.1
		C214.4,216.6,207,215.9,200,217.1 M356,239.8c-2.2,0.8-3.5,3.1-4.3,5.2c-1.5,4.1-1.9,8.5-2,12.8c-0.2,9.7,1,19.3,3.1,28.7
		c1.4,5.9,3.1,11.8,5.9,17.3c1.3,2.4,2.8,4.9,5.1,6.5c1.5,1.1,3.8,1.4,5.2,0.1c3.9-3.3,6.8-7.6,8.9-12.2c5.9-12.8,5.8-28.4-0.9-40.9
		c-3.9-7.3-10-13.3-17.2-17.4C358.7,239.4,357.2,239.4,356,239.8 M137.9,240.8c-8.5,4.6-15.6,12.1-19.4,21.1
		c-4.4,10.4-4.6,22.4-1,33.1c2.2,6.3,5.7,12.3,10.8,16.7c1.6,1.3,3.9,0.8,5.4-0.4c2.6-2.1,4.3-5.2,5.7-8.2c3-6.8,4.8-14.1,6.2-21.4
		c1.5-8.8,2.4-17.8,1.7-26.8c-0.4-4.1-1-8.4-3.4-11.8C142.6,241.1,140.1,240,137.9,240.8 M243.1,294.4
		c-13.7,1.7-26.7,10.1-32.8,22.7c-4.3,8.7-4.9,19.2-1.5,28.4c2.5,6.9,7.1,12.9,12.8,17.3c12.4,9.7,30,12,44.6,6.2
		c8.2-3.2,15.5-8.9,20.3-16.3c7.3-11.1,7.7-26.2,1-37.6c-4-7-10.2-12.7-17.4-16.2C261.8,294.6,252.3,293.2,243.1,294.4 M341.8,308.8
		c-5.3,0.8-10.1,3.5-14.5,6.6c-6.2,4.4-11.6,9.7-16.7,15.3c-4.8,5.5-8.5,12.1-11.2,18.9c-2.6,6.6-4.4,13.6-4.4,20.8
		c0.1,4.4,1,9.1,4.1,12.4c2.3,1.9,5.2,2.9,8.1,3.5c7.3,1.3,14.9-0.1,21.6-3.1c10.4-4.6,18.7-12.8,25-22.1c4.9-7.8,6.7-17.3,6.4-26.4
		c-0.3-7-1.6-14.2-5.2-20.3C352.6,309.7,346.7,308.1,341.8,308.8 M147.8,315c-2.3,0.6-4.6,1.4-6.2,3.2c-2.7,3-3.9,6.9-4.5,10.8
		c-1.2,8.7,0.6,17.6,3.8,25.6c1.6,3.7,3.2,7.5,5.7,10.6c5.2,6.8,11.9,12.6,19.6,16.3c6.9,3.3,14.9,5.1,22.5,3.6c2.4-0.6,5-1.2,6.9-3
		c3.3-3.3,4.2-8.2,4.3-12.7c0-8.7-2.8-17.2-6.8-24.9c-2.7-5.1-6.3-9.7-10.4-13.7c-5.9-5.7-12.5-10.9-20.1-14
		C158,315.1,152.8,314,147.8,315 M243.1,384.5c-9.1,0.9-18.2,2.7-26.5,6.5c-3.3,1.6-6.9,3.6-8.5,7.1c-1.1,2.5,0.3,5,1.8,7
		c3.6,4.6,8.4,8.2,13.4,11.2c7.9,4.6,16.9,7.6,26,7.4c8.9,0.1,17.5-2.9,25.1-7.4c5.2-3.1,10-6.9,13.7-11.7c1.5-2,2.9-4.3,2.8-6.9
		c-0.3-2.8-2.7-4.7-4.9-6c-5.5-3.3-11.9-4.9-18.1-6C259.8,384,251.4,384,243.1,384.5z"/>
</g>
</svg>
